max v2;#N vpatcher 1104 134 1624 738;#P origin 0 -5;#P window setfont "Sans Serif" 18.;#P number 453 152 40 18 0 0 160 3 0 0 0 255 255 255 222 222 222 0 0 0;#P objectname currentsteper;#P window setfont "Sans Serif" 9.;#P hidden newex 885 347 27 196617 - 1;#P hidden newex 885 296 62 196617 prepend set;#P hidden newex 885 264 27 196617 + 1;#P hidden newex 885 322 97 196617 pvar currentsteper;#P hidden newex 747 232 148 196617 var /cuesheet.1/step/current;#P window setfont "Sans Serif" 18.;#P number 451 74 41 18 0 0 32 3 0 0 0 255 255 255 222 222 222 0 0 0;#P objectname currentstep;#P window setfont "Sans Serif" 9.;#P hidden newex 746 90 62 196617 prepend set;#P hidden newex 746 137 27 196617 - 1;#P hidden newex 746 68 27 196617 + 1;#P hidden newex 746 116 87 196617 pvar currentstep;#P hidden newex 746 161 134 196617 var /cuesheet.1/step/next;#P window linecount 2;#P hidden message 193 132 111 196617 \; /oscreceive.1/print 1;#P window linecount 1;#P hidden newex 850 790 98 196617 s /events.1/create;#P hidden newex 850 765 63 196617 pvar create;#P hidden newex 1207 648 62 196617 prepend set;#P hidden newex 1220 533 62 196617 prepend set;#P hidden newex 1157 627 27 196617 - 1;#P hidden newex 1157 540 27 196617 - 1;#P hidden newex 1275 606 27 196617 + 1;#P hidden newex 1275 558 27 196617 + 1;#P hidden newex 1043 606 99 196617 var /modul8/set/B;#P hidden newex 1204 605 54 196617 pvar setB;#P hidden newex 1043 568 100 196617 var /modul8/set/A;#P hidden newex 1204 567 55 196617 pvar setA;#P window setfont "Sans Serif" 14.;#P user ubumenu 393 497 45 196622 0 1 1 0;#X setrgb 255 255 255 45 75 112 95 115 162 255 255 255 141 141 141 112 112 112;#X add 1;#X add 2;#X add 3;#X add 4;#X add 5;#X add 6;#X add 7;#X add 8;#X prefix_set 0 0 <none> 0;#P objectname setB;#P user ubumenu 146 497 45 196622 0 1 1 0;#X setrgb 255 255 255 45 75 112 95 115 162 255 255 255 141 141 141 112 112 112;#X add 1;#X add 2;#X add 3;#X add 4;#X add 5;#X add 6;#X add 7;#X add 8;#X prefix_set 0 0 <none> 0;#P objectname setA;#P comment 266 498 113 196622 /modul8/set/B;#B frgb 255 255 255;#P comment 5 498 113 196622 /modul8/set/A;#B frgb 255 255 255;#P window setfont "Sans Serif" 9.;#P hidden newex 1221 225 75 196617 pvar alphanum;#P hidden newex 936 210 84 196617 pvar loopoutnum;#P hidden newex 883 180 78 196617 pvar loopinnum;#P hidden newex 1154 130 71 196617 pvar ratenum;#P window setfont "Sans Serif" 14.;#P flonum 307 384 46 14 0. 1. 35 3 0 0 0 255 255 255 222 222 222 0 0 0;#P objectname loopoutnum;#P flonum 307 414 46 14 0. 1. 35 3 0 0 0 255 255 255 222 222 222 0 0 0;#P objectname entrypointnum;#P flonum 307 361 46 14 0. 1. 35 3 0 0 0 255 255 255 222 222 222 0 0 0;#P objectname loopinnum;#P flonum 307 333 46 14 0. 1. 35 3 0 0 0 255 255 255 222 222 222 0 0 0;#P objectname ratenum;#P flonum 307 301 46 14 0. 1. 35 3 0 0 0 255 255 255 222 222 222 0 0 0;#P objectname alphanum;#P hidden toggle 713 197 15 0;#P hidden button 655 197 15 0;#P window setfont "Sans Serif" 9.;#P hidden newex 628 163 99 196617 pvar enginebutton 4;#B color 14;#P hidden newex 714 215 32 196617 sel 0;#P hidden message 682 217 29 196617 stop;#P hidden button 629 238 15 0;#P hidden newex 629 217 50 196617 del 1000;#P hidden button 628 196 15 0;#P hidden message 105 79 33 196617 clear;#P window setfont "Sans Serif" 12.;#P message 365 335 47 196620 state;#B color 1;#P message 414 335 44 196620 initall;#B color 1;#P message 459 335 30 196620 init;#B color 1;#P window setfont "Sans Serif" 9.;#P window linecount 11;#P hidden message 794 449 111 196617 \; /modul8.1/init bang \; /modul8.2/init bang \; /modul8.3/init bang \; /modul8.4/init bang \; /modul8.5/init bang \; /modul8.6/init bang \; /modul8.7/init bang \; /modul8.8/init bang \; /modul8.9/init bang \; /modul8.10/init bang \;;#P window linecount 1;#P hidden newex 794 419 74 196617 pvar m8initall;#P hidden button 345 361 22 0;#P objectname m8initall;#P hidden newex 699 509 79 196617 sprintf %s/init;#P hidden newex 657 459 52 196617 b 2;#P hidden newex 699 528 68 196617 prepend send;#P hidden newex 699 485 36 196617 zl reg;#P hidden newex 657 556 47 196617 forward;#P hidden newex 657 437 63 196617 pvar m8init;#P hidden button 345 331 22 0;#P objectname m8init;#P hidden newex 1361 511 70 196617 pvar m8temp;#P window setfont "Sans Serif" 14.;#P comment 5 464 149 196622 /modul8/crossfader;#B frgb 255 255 255;#P window setfont "Sans Serif" 9.;#P hidden newex 82 791 183 196617 variedit /modul8/crossfader /modul8;#P hidden message 979 531 133 196617 setsymbol /modul8.1 \, bang;#P hidden newex 979 500 99 196617 r /instruments/init;#P window setfont Times 9.;#P hidden newex 1361 537 27 1310729 b 2;#B color 6;#P hidden button 345 303 22 0;#P objectname m8temp;#P hidden newex 1361 594 110 1310729 storetemppathu /modul8.1;#B color 6;#P window setfont "Sans Serif" 9.;#P hidden newex 1050 426 86 196617 pvar m8layers 2;#P hidden newex 1128 450 50 196617 deferlow;#P window setfont "Sans Serif" 12.;#N vpatcher 30 89 293 402;#P origin 0 -15;#P window setfont "Sans Serif" 9.;#P window linecount 0;#P newex 91 178 64 196617 sprintf %s_;#P window linecount 2;#P newex 50 138 39 196617 route symbol;#P window linecount 1;#P newex 50 87 46 196617 t dump l;#P newex 50 65 114 196617 sprintf refer %s/state;#P newex 50 254 47 196617 forward;#P window linecount 2;#P newex 91 210 42 196617 prepend send;#P newex 91 138 39 196617 route symbol;#P window linecount 1;#N coll /modul8.1/state;#P newobj 50 114 134 196617 coll;#B color 5;#P inlet 50 21 15 0;#P connect 0 0 5 0;#P connect 5 0 6 0;#P connect 6 1 1 0;#P connect 6 0 1 0;#P connect 1 0 7 0;#P fasten 3 0 4 0 96 246 55 246;#P connect 7 0 4 0;#P fasten 7 1 4 0 84 191 55 191;#P connect 1 1 2 0;#P connect 2 0 8 0;#P connect 8 0 3 0;#P pop;#P hidden newobj 1128 479 109 196620 p re-send values;#B color 7;#P window setfont "Sans Serif" 9.;#P hidden newex 1053 396 131 196617 varieditu /entrypoint $1;#P hidden newex 1236 389 95 196617 pvar m8entrypoint;#P hidden newex 962 155 66 196617 pvar m8loop;#P hidden newex 1042 153 102 196617 varieditu /loop $1;#P hidden newex 1065 356 40 196617 / 100.;#P hidden newex 1023 330 52 196617 unpack i i;#P hidden newex 1023 284 62 196617 prepend set;#P hidden newex 1068 237 41 196617 * 100.;#P hidden newex 1023 240 41 196617 * 100.;#P hidden newex 1023 356 40 196617 / 100.;#P hidden newex 1023 263 37 196617 pak i i;#P hidden newex 1031 214 122 196617 varieditu /loop/out $1;#P hidden newex 970 180 116 196617 varieditu /loop/in $1;#P hidden newex 1042 128 103 196617 varieditu /rate $1;#P hidden newex 962 128 67 196617 pvar m8rate;#P hidden newex 1042 102 124 196617 varieditu /direction $1;#P hidden newex 962 102 88 196617 pvar m8direction;#P hidden newex 1042 76 107 196617 varieditu /name $1;#P hidden newex 962 76 71 196617 pvar m8name;#P hidden newex 1129 178 136 196617 varieditu /color/alpha $1;#P hidden newex 1023 305 93 196617 pvar m8looppoints;#P window setfont "Sans Serif" 12.;#P comment 5 416 89 196620 /entrypoint;#B frgb 255 255 255;#P comment 17 386 77 196620 /loop/out;#B frgb 255 255 255;#P comment 24 367 65 196620 /loop/in;#B frgb 255 255 255;#P user multiSlider 81 411 225 30 0. 1. 1 2936 47 0 0 2 0 0 0;#M frgb 173 173 173;#M brgb 255 255 255;#M rgb2 127 127 127;#M rgb3 0 0 0;#M rgb4 37 52 91;#M rgb5 74 105 182;#M rgb6 112 158 18;#M rgb7 149 211 110;#M rgb8 187 9 201;#M rgb9 224 62 37;#M rgb10 7 114 128;#P objectname m8entrypoint;#P user rslider 81 364 224 44 100 1 0 7 1;#P objectname m8looppoints;#P window setfont "Sans Serif" 14.;#P number 455 361 39 14 0 135 35 3 0 0 0 255 255 255 222 222 222 0 0 0;#P objectname m8name;#P window setfont "Sans Serif" 12.;#P comment 361 361 49 196620 /name;#B frgb 255 255 255;#P comment 361 416 41 196620 /loop;#B frgb 255 255 255;#P comment 361 389 70 196620 /direction;#B frgb 255 255 255;#P window setfont "Sans Serif" 14.;#P user ubumenu 401 414 93 196622 0 1 1 0;#X setrgb 0 0 0 255 255 255 234 234 234 4 4 4 141 141 141 112 112 112;#X add loop;#X add palindrome;#X add oneshot;#X prefix_set 0 0 <none> 0;#P objectname m8loop;#P window setfont "Sans Serif" 12.;#P comment 34 305 53 196620 /alpha;#B frgb 255 255 255;#P user multiSlider 81 299 224 30 0. 1. 1 2936 47 0 0 2 0 0 0;#M frgb 253 27 27;#M brgb 255 255 255;#M rgb2 127 127 127;#M rgb3 0 0 0;#M rgb4 37 52 91;#M rgb5 74 105 182;#M rgb6 112 158 18;#M rgb7 149 211 110;#M rgb8 187 9 201;#M rgb9 224 62 37;#M rgb10 7 114 128;#P objectname m8alpha;#P comment 36 336 46 196620 /rate;#B frgb 255 255 255;#P user multiSlider 81 331 224 30 0. 1. 1 2936 47 0 0 2 0 0 0;#M frgb 75 75 75;#M brgb 255 255 255;#M rgb2 127 127 127;#M rgb3 0 0 0;#M rgb4 37 52 91;#M rgb5 74 105 182;#M rgb6 112 158 18;#M rgb7 149 211 110;#M rgb8 187 9 201;#M rgb9 224 62 37;#M rgb10 7 114 128;#P objectname m8rate;#P window setfont "Sans Serif" 20.;#P user ubumenu 365 299 128 196628 0 1 1 0;#X setrgb 0 0 0 255 255 255 234 234 234 4 4 4 141 141 141 112 112 112;#X add /modul8.1;#X add /modul8.2;#X add /modul8.3;#X add /modul8.4;#X add /modul8.5;#X add /modul8.6;#X add /modul8.7;#X add /modul8.8;#X add /modul8.9;#X add /modul8.10;#X prefix_set 0 0 <none> 0;#P objectname m8layers;#P window setfont "Sans Serif" 9.;#P hidden newex 747 788 90 196617 s /events.1/save;#P hidden newex 747 763 55 196617 pvar save;#P window setfont Helvetica 18.;#P user ubumenu 393 43 99 1376274 0 1 1 0;#X setrgb 0 0 0 255 255 255 234 234 234 4 4 4 141 141 141 112 112 112;#X add <choose>;#X add edit;#X add rename;#X add delete;#X prefix_set 0 0 <none> 0;#P objectname eventmenu;#P window setfont "Sans Serif" 9.;#P hidden message 1151 733 33 196617 set 0;#P hidden newex 1131 710 30 196617 t s b;#P hidden newex 1267 732 110 196617 route set append clear;#P hidden newex 1131 755 180 196617 sel edit rename delete;#P hidden newex 1050 639 48 196617 loadbang;#P hidden message 1050 662 76 196617 enableitem 0 0;#P hidden newex 1050 687 91 196617 pvar eventmenu 2;#P window linecount 0;#P hidden newex 732 607 13 196617;#B color 14;#P window linecount 1;#P hidden newex 1243 788 36 196617 zl reg;#P hidden newex 1243 811 96 196617 s /events.1/delete;#P window setfont "Sans Serif" 10.;#P comment 186 20 43 196618 V 0.08;#B frgb 255 255 255;#P window setfont "Sans Serif" 9.;#P hidden newex 396 779 21 196617 t 1;#B color 12;#P hidden newex 397 802 129 196617 s /cuesheet.1/autofill/sw;#B color 12;#P hidden newex 396 756 127 196617 r /events.1/menu/update;#B color 12;#P hidden newex 1131 903 86 196617 s /events.1/edit;#P hidden newex 1131 856 36 196617 zl reg;#P hidden newex 1187 854 102 196617 s /events.1/rename;#P hidden newex 1187 833 36 196617 zl reg;#P window setfont "Sans Serif" 18.;#P hidden comment 69 713 101 196626 /shutter 2;#B frgb 255 255 255;#P window setfont "Sans Serif" 9.;#P hidden newex 130 638 51 196617 route set;#P hidden newex 27 638 101 196617 pvar shutterbutton2;#B color 12;#P window setfont Helvetica 9.;#P hidden newex 15 602 67 1376265 var /shutter.2;#B color 11;#P hidden toggle 15 667 15 0;#P window setfont "Sans Serif" 9.;#P hidden newex 15 756 96 196617 pvar shutterpanel2;#P hidden newex 15 691 60 196617 sel 0 1;#P window linecount 2;#N vpatcher 516 435 973 696;#P window setfont "Sans Serif" 9.;#P message 233 94 155 196617 brgb 55 155 55 \, frgb 22 222 22;#P inlet 236 32 15 0;#P outlet 16 155 15 0;#P window linecount 1;#P message 14 89 170 196617 brgb 222 15 15 \, frgb 222 222 222;#P inlet 16 33 15 0;#P window linecount 0;#P newex 236 60 38 196617 del 10;#P connect 4 0 2 0;#P connect 5 0 3 0;#P connect 2 0 3 0;#P connect 0 0 5 0;#P connect 1 0 0 0;#P pop;#P hidden newobj 15 714 35 196617 p color;#P window linecount 1;#P hidden message 531 536 33 196617 clear;#P window setfont "Sans Serif" 18.;#P hidden comment 59 910 83 196626 /shutter;#B frgb 255 255 255;#P window setfont "Sans Serif" 9.;#P hidden newex 126 829 51 196617 route set;#P hidden newex 23 829 95 196617 pvar shutterbutton;#B color 12;#P window setfont Helvetica 9.;#P hidden newex 11 793 65 1376265 var /shutter.1;#B color 11;#P hidden toggle 11 858 15 0;#P window setfont "Sans Serif" 9.;#P hidden newex 10 938 90 196617 pvar shutterpanel;#P hidden newex 11 882 60 196617 sel 0 1;#P window linecount 2;#N vpatcher 516 435 973 696;#P window setfont "Sans Serif" 9.;#P message 233 94 155 196617 brgb 55 155 55 \, frgb 22 222 22;#P inlet 236 32 15 0;#P outlet 16 155 15 0;#P message 14 89 170 196617 brgb 222 15 15 \, frgb 222 222 222;#P inlet 16 33 15 0;#P newex 236 60 38 196617 del 10;#P connect 4 0 2 0;#P connect 2 0 3 0;#P connect 5 0 3 0;#P connect 0 0 5 0;#P connect 1 0 0 0;#P pop;#P hidden newobj 11 905 35 196617 p color;#P window setfont "Sans Serif" 18.;#P window linecount 1;#P hidden comment 906 743 100 196626 /cuesheet;#B frgb 255 255 255;#P window setfont "Sans Serif" 9.;#P hidden newex 597 599 93 196617 r /cuesheet.1/init;#B color 12;#N vpatcher 248 616 1558 901;#P outlet 517 234 15 0;#P inlet 370 24 15 0;#P window setfont "Sans Serif" 9.;#P newex 1002 45 56 196617 route text;#P newex 693 46 56 196617 route text;#P newex 1002 68 273 196617 s /cuesheet.1/nextcomment/from;#B color 12;#P newex 693 69 287 196617 s /cuesheet.1/onstagecomment/from;#B color 12;#P newex 678 130 259 196617 r /cuesheet.1/onstagecomment;#B color 12;#P newex 987 130 245 196617 r /cuesheet.1/nextcomment;#B color 12;#P newex 491 198 62 196617 prepend set;#B color 12;#P newex 491 177 104 196617 r /cuesheet.1/next;#B color 12;#P newex 186 109 34 196617 defer;#B color 12;#P message 127 149 249 196617 brgb 222 22 22 \, rgb3 222 22 22 \, frgb 255 255 255;#P message 186 130 249 196617 brgb 155 55 55 \, rgb3 105 35 35 \, frgb 255 255 255;#P newex 186 67 101 196617 sprintf set %s/done;#B color 12;#P newex 186 88 14 196617 r;#B color 12;#P newex 469 130 143 196617 vari /cuesheet.1/step/next;#B color 12;#P newex 9 109 78 196617 prepend append;#P newex 9 47 189 196617 t l clear b l;#P newex 9 23 116 196617 r /cuesheet.1/current;#B color 12;#P newex 480 153 163 196617 r /cuesheet.1/tosequence-menu;#B color 12;#P newex 447 70 222 196617 s /cuesheet.1/fromsequence-menu;#B color 12;#P inlet 447 24 15 0;#P inlet 1002 24 15 0;#P inlet 469 108 15 0;#P inlet 693 24 15 0;#P outlet 469 234 15 0;#P outlet 987 234 15 0;#P outlet 9 234 15 0;#P outlet 678 234 15 0;#P connect 10 0 11 0;#P connect 11 0 12 0;#P fasten 16 0 1 0 191 213 14 213;#P fasten 17 0 1 0 132 203 14 203;#P fasten 11 1 1 0 73 149 14 149;#P fasten 12 0 1 0 14 180 14 180;#P connect 11 2 17 0;#P connect 11 3 15 0;#P connect 15 0 14 0;#P connect 14 0 18 0;#P connect 18 0 16 0;#P fasten 27 0 16 0 375 127 191 127;#P connect 7 0 8 0;#P connect 5 0 13 0;#P connect 9 0 3 0;#P connect 20 0 3 0;#P connect 13 0 3 0;#P connect 19 0 20 0;#P connect 19 0 28 0;#P connect 13 0 28 0;#P connect 9 0 28 0;#P connect 22 0 0 0;#P connect 4 0 25 0;#P connect 25 0 23 0;#P connect 21 0 2 0;#P connect 6 0 26 0;#P connect 26 0 24 0;#P pop;#P hidden newobj 511 656 355 196617 p;#P hidden newex 891 680 103 196617 pvar nextcomment 2;#B color 14;#P hidden newex 741 680 108 196617 pvar onstagecomment;#B color 14;#P hidden newex 511 680 68 196617 pvar onstage;#B color 14;#P hidden message 383 686 35 196617 write;#P hidden newex 387 710 93 196617 s /cuesheet.1/file;#B color 12;#P hidden newex 372 662 96 196617 pvar writeciedheet;#B color 14;#P hidden newex 372 618 37 196617 t open;#P hidden newex 372 596 71 196617 pvar conduite;#B color 12;#N coll /cuesheet.1 1;#P hidden newobj 372 641 92 196617 coll /cuesheet.1 1;#B color 5;#P hidden newex 380 732 181 196617 s /cuesheet.1/sequence-menu/update;#B color 12;#P hidden newex 633 763 67 196617 pvar gopanel;#P hidden newex 622 717 86 196617 pvar gobuttonn 2;#N vpatcher 72 655 527 851;#P window setfont "Sans Serif" 9.;#P window linecount 1;#P newex 31 41 44 196617 del 250;#P window linecount 0;#P message 330 97 80 196617 frgb 22 222 22;#P message 236 97 81 196617 brgb 222 22 22;#P inlet 236 32 15 0;#P outlet 16 155 15 0;#P message 110 66 86 196617 frgb 96 190 255;#P message 16 66 81 196617 brgb 0 146 204;#P connect 6 0 0 0;#P connect 1 0 2 0;#P connect 0 0 2 0;#P connect 5 0 2 0;#P connect 4 0 2 0;#P connect 3 0 6 0;#P connect 6 0 1 0;#P connect 3 0 4 0;#P connect 3 0 5 0;#P pop;#P hidden newobj 633 741 70 196617 p color;#P window linecount 2;#P hidden message 620 784 103 196617 \; /cuesheet.1/go bang;#P window linecount 1;#P hidden newex 552 431 94 196617 bgcolor 45 75 112;#P hidden newex 629 360 72 196617 pvar redpanel;#B color 14;#P window setfont "Sans Serif" 14.;#N vpatcher 744 262 949 447;#P window setfont "Sans Serif" 9.;#P message 50 96 75 196617 brgb 21 34 52;#P message 67 75 81 196617 brgb 180 30 30;#P window setfont "Sans Serif" 10.;#P newex 50 50 44 196618 sel 0 1;#P inlet 50 30 15 0;#P outlet 50 116 15 0;#P connect 1 0 2 0;#P connect 2 0 4 0;#P connect 4 0 0 0;#P connect 3 0 0 0;#P connect 2 1 3 0;#P pop;#P hidden newobj 629 330 85 196622 p redpanel;#B color 6;#P window setfont "Sans Serif" 9.;#P window linecount 2;#P hidden message 629 264 100 196617 \; /engine/editor open;#P window setfont "Sans Serif" 10.;#P window linecount 1;#P hidden newex 552 402 159 196618 editorwindow /app /tapemovie;#B color 6;#N thispatcher;#Q end;#P hidden newobj 552 378 66 196618 thispatcher;#P window setfont Helvetica 14.;#N vpatcher 532 44 1020 522;#P origin 175 16;#P window setfont "Sans Serif" 14.;#P window linecount 0;#N vpatcher 881 163 1284 340;#P window setfont "Sans Serif" 9.;#P window linecount 1;#P newex 203 59 41 196617 sel 0 1;#P newex 21 59 41 196617 sel 0 1;#P newex 203 35 66 196617 r /shutter.2;#P window linecount 0;#P newex 21 35 66 196617 r /shutter.1;#P window linecount 2;#P message 203 116 125 196617 \; /midicc.1/out/ctllist 4 0;#P message 218 84 137 196617 \; /midicc.1/out/ctllist 4 127;#P message 21 116 125 196617 \; /midicc.1/out/ctllist 3 0;#P window linecount 0;#P message 36 84 137 196617 \; /midicc.1/out/ctllist 3 127;#P connect 4 0 6 0;#P connect 6 0 1 0;#P connect 6 1 0 0;#P connect 5 0 7 0;#P connect 7 0 3 0;#P connect 7 1 2 0;#P pop;#P newobj 167 266 114 196622 p shutters-midi;#B color 6;#P window setfont "Sans Serif" 9.;#N coll /events.2/state;#P newobj 353 264 103 196617 coll /events.2/state;#N coll /events.1/state;#P newobj 354 242 103 196617 coll /events.1/state;#P window setfont "Sans Serif" 10.;#P newex 335 41 51 196618 loadbang;#P newex 335 68 52 196618 deferlow;#P newex 335 120 104 196618 s /tapemovie/build;#P newex 335 94 52 196618 deferlow;#P window setfont "Sans Serif" 9.;#P newex 209 72 89 196617 pvar ininitmenu 2;#B color 14;#P window setfont "Sans Serif" 14.;#P user ubumenu 186 21 110 196622 0 0 1 0;#X setrgb 0 0 0 230 230 230 255 255 255 0 146 207 141 141 141 0 146 207;#X add init;#X prefix_set 0 0 <none> 0;#P objectname ininitmenu;#P window setfont "Sans Serif" 12.;#P user ubumenu 186 45 110 196620 0 0 1 0;#X setrgb 0 0 0 230 230 230 255 255 255 0 146 207 141 141 141 0 146 207;#X add Configuration;#X add edit-config;#X add write-config;#X add edit-shortcuts;#X add write-shortcuts;#X prefix_set 0 0 <none> 0;#P objectname configmenu;#P window setfont "Sans Serif" 10.;#P newex 87 24 51 196618 loadbang;#P window setfont "Sans Serif" 9.;#P message 87 51 76 196617 enableitem 0 0;#P window setfont "Sans Serif" 10.;#P newex 16 39 66 196618 prepend set;#P newex 100 118 31 196618 t 0 l;#P window setfont "Sans Serif" 9.;#P newex 88 72 93 196617 pvar configmenu 2;#B color 14;#P window setfont "Sans Serif" 14.;#N vpatcher 576 382 1116 641;#P window setfont "Sans Serif" 9.;#P window linecount 0;#P newex 16 204 381 196617 makeparam-m8-master crossfader_slider /modul8/crossfader /modul8 f 1 0 1 1;#P newex 318 141 124 196617 r /oscreceive.1/activity;#B color 12;#P newex 318 172 78 196617 s /frommodul8;#B color 12;#P comment 262 120 259 196617 switch off osc send to modul8 to avoid resetting layers;#P newex 318 78 31 196617 == 0;#P newex 318 101 87 196617 s /oscsend.1/sw;#P inlet 318 37 15 0;#P window linecount 2;#P message 18 162 270 196617 \; /oscsend.1 /md8key/ctrl_master_layerSetGroupA/0 \$1;#P window linecount 1;#P newex 18 141 27 196617 - 1;#P newex 18 114 89 196617 r /modul8/set/A;#B color 12;#P window linecount 2;#P message 17 81 269 196617 \; /oscsend.1 /md8key/ctrl_master_layerSetGroupB/0 \$1;#P window linecount 1;#P newex 17 58 27 196617 - 1;#P newex 17 33 88 196617 r /modul8/set/B;#B color 12;#P connect 0 0 1 0;#P connect 1 0 2 0;#P connect 3 0 4 0;#P connect 4 0 5 0;#P connect 6 0 8 0;#P connect 8 0 7 0;#P connect 11 0 10 0;#P pop;#P newobj 168 240 73 196622 p modul8;#B color 6;#P window setfont "Sans Serif" 9.;#P window linecount 2;#P newex 121 152 222 196617 sel init edit-config write-config edit-shortcuts write-shortcuts;#P window setfont "Sans Serif" 18.;#P window linecount 1;#P comment 214 291 154 196626 project manager;#B frgb 0 124 206;#P window setfont "Sans Serif" 9.;#P window linecount 2;#P message 79 342 214 196617 \; /tapemovie/chooseprojectwindow/open bang;#P outlet 249 240 15 0;#P button 36 406 15 0;#P window linecount 1;#P message 36 386 37 196617 config;#P newex 147 105 163 196617 editorwindow /engine /tapemovie;#B color 6;#N thispatcher;#Q end;#P newobj 147 125 61 196617 thispatcher;#P toggle 249 216 15 0;#P button 79 157 15 0;#P toggle 352 191 15 0;#P newex 36 118 48 196617 loadbang;#N vpatcher 741 405 1698 683;#P button 490 30 15 0;#P window setfont "Sans Serif" 9.;#P window linecount 1;#P newex 43 58 34 196617 b 2;#P message 68 124 22 196617 set;#P inlet 796 34 15 0;#P outlet 796 218 15 0;#P outlet 301 217 15 0;#P outlet 181 216 15 0;#P newex 796 150 123 196617 var /tapemovie/verbose;#P newex 301 150 120 196617 r /tapemovie/init/state;#P newex 181 150 110 196617 r /tapemovie/building;#P outlet 43 215 15 0;#P newex 43 185 62 196617 prepend set;#P newex 43 150 132 196617 r /tapemovie/projectname;#P inlet 598 34 15 0;#P inlet 460 34 15 0;#P inlet 341 34 15 0;#P inlet 251 34 15 0;#P inlet 142 34 15 0;#P inlet 43 34 15 0;#P newex 638 90 149 196617 s /tapemovie/shortcuts/reset;#P newex 598 63 50 196617 t write b;#P newex 460 63 37 196617 t open;#P newex 460 90 170 196617 s /tapemovie/tm_shortcuts/editor;#P newex 341 90 88 196617 s tm_init2/write;#P newex 251 90 83 196617 s tm_init2/open;#P newex 142 90 97 196617 s /tapemovie/build;#P window linecount 0;#P newex 43 90 95 196617 s /tapemovie/path;#P connect 8 0 25 0;#P connect 25 0 0 0;#P connect 14 0 15 0;#P connect 24 0 16 0;#P connect 15 0 16 0;#P connect 25 1 24 0;#P connect 9 0 1 0;#P connect 17 0 20 0;#P connect 10 0 2 0;#P connect 18 0 21 0;#P connect 11 0 3 0;#P connect 12 0 5 0;#P connect 26 0 5 0;#P connect 5 0 4 0;#P connect 6 0 4 0;#P connect 13 0 6 0;#P connect 6 1 7 0;#P connect 23 0 19 0;#P connect 19 0 22 0;#P pop;#P newobj 79 189 266 196617 p tapemovie.control;#P comment 348 172 46 196617 verbose;#P user textedit 79 315 350 338 32897 3 9 /farenheit-451/tm-ptroject;#P newex 285 217 85 196617 tapemovie.model;#B color 14;#P window setfont "Sans Serif" 18.;#P comment 225 379 144 196626 config manager;#B frgb 0 124 206;#P user panel 68 294 300 80;#X brgb 255 255 255;#X frgb 0 0 0;#X border 1;#X rounded 0;#X shadow 0;#X done;#P bpatcher 36 427 330 22 0 0 tm_configeditormenu.mxt 1;#P user panel 33 380 335 78;#X brgb 255 255 255;#X frgb 0 0 0;#X border 1;#X rounded 0;#X shadow 0;#X done;#P fasten 22 0 23 0 105 153 12 153 12 33 21 33;#P lcolor 2;#P fasten 8 0 14 0 41 141 41 141;#P connect 14 0 15 0;#P connect 15 0 1 0;#P connect 8 0 10 0;#P connect 10 0 7 0;#P connect 7 0 5 0;#P connect 25 0 24 0;#P connect 23 0 21 0;#P connect 24 0 21 0;#P fasten 21 1 22 0 176 94 105 94;#P fasten 28 1 22 0 293 94 105 94;#P connect 22 1 19 0;#P connect 19 0 7 1;#P fasten 12 0 13 0 152 145 143 145 143 102 152 102;#P connect 13 0 12 0;#P connect 19 1 7 2;#P fasten 11 0 20 0 254 234 173 234;#P connect 19 2 7 3;#P connect 19 3 7 4;#P fasten 7 1 11 0 169 212 254 212;#P connect 7 2 11 0;#P connect 11 0 16 0;#P connect 19 4 7 5;#P connect 9 0 7 6;#P connect 32 0 31 0;#P connect 31 0 29 0;#P connect 29 0 30 0;#P connect 7 3 9 0;#P pop;#P hidden newobj 629 300 84 1376270 p engine;#B color 6;#P window setfont "Sans Serif" 9.;#P hidden newex 615 684 111 196617 pvar sequence-menu 2;#B color 14;#P hidden user panel 361 589 655 229;#X brgb 255 255 255;#X frgb 90 90 110;#X border 1;#X rounded 0;#X shadow 0;#X done;#P background;#P objectname mainpanel[2];#P window setfont "Sans Serif" 14.;#P user textedit 7 181 494 232 32897 3 14 "replace for comment";#P objectname onstagecomment;#P window setfont "Sans Serif" 18.;#P user ubumenu 7 152 446 196626 1 0 0 2;#X setrgb 255 255 255 155 55 55 255 255 255 4 4 4 105 35 35 16 207 108;#X add 3-;#X prefix_set 0 0 <none> 0;#P objectname onstage;#P user ubumenu 6 74 446 196626 0 1 1 2;#X setrgb 0 0 0 55 155 55 234 234 234 4 4 4 141 141 141 112 112 112;#X add MISE;#X add TOP;#X add TOP02;#X add TOP03;#X add TOP04;#X add TOP05;#X add TOP06;#X add TOP07;#X add TOP08;#X add TOP09;#X add TOP10;#X add TOP11;#X add TOP12;#X add TOP13;#X add TOP14;#X add TOP15;#X add TOP16;#X add TOP16bis;#X add TOP17;#X add TOP18;#X add TOP19;#X add TOP20;#X add TOP21;#X add TOP22;#X add TOP23;#X add TOP24;#X add TOP25;#X add TOP26;#X add TOP27;#X add TOP28;#X add end;#X prefix_set 0 0 <none> 0;#P objectname sequence-menu;#P window setfont "Sans Serif" 14.;#P user textedit 7 101 494 151 32897 3 14 "Mise avec ouverture puis fermeture des shutters et remise a 0 des 10 calques";#P objectname nextcomment;#P window setfont "Sans Serif" 10.;#P comment 19 38 127 196618 Renaud Rubiano - 2012;#B frgb 255 255 255;#P window setfont Arial 18.;#P comment 210 547 85 -1205862382 /shutter.2;#B frgb 255 255 255;#P user panel 186 547 144 24;#X brgb 55 155 55;#X frgb 22 222 22;#X border 1;#X rounded 25;#X shadow 0;#X done;#P objectname shutterpanel2;#P comment 38 547 85 -1205862382 /shutter.1;#B frgb 255 255 255;#P user panel 6 547 157 24;#X brgb 55 155 55;#X frgb 22 222 22;#X border 1;#X rounded 25;#X shadow 0;#X done;#P objectname shutterpanel;#P user ubutton 188 547 140 21 0 2;#P objectname shutterbutton2;#P user ubutton 8 547 153 21 0 2;#P objectname shutterbutton;#P window setfont "Sans Serif" 14.;#P user ubumenu 453 386 40 196622 0 1 1 0;#X setrgb 0 0 0 255 255 255 234 234 234 4 4 4 141 141 141 112 112 112;#X add ->;#X add <-;#X prefix_set 0 0 <none> 0;#P objectname m8direction;#P window setfont Arial 18.;#P comment 390 264 58 -1205862382 SAVE;#B frgb 255 255 255;#P objectname audioofflabel[1];#P user ubutton 338 261 157 26 0 2;#P objectname save;#P user panel 339 262 155 24;#X brgb 241 134 39;#X frgb 222 222 222;#X border 1;#X rounded 25;#X shadow 0;#X done;#P objectname audiopanel[1];#P window setfont Arial 14.;#P comment 300 29 65 -1205862386 CONFIG;#B frgb 255 255 255;#P objectname audioofflabel[2];#P user panel 287 28 87 21;#X brgb 0 146 207;#X frgb 222 222 222;#X border 1;#X rounded 25;#X shadow 0;#X done;#P objectname audiopanel[2];#P window setfont "Sans Serif" 10.;#P comment 19 49 211 196618 tapemovie based software - didascalie.net;#B frgb 0 147 203;#P user panel 1 293 499 152;#X brgb 33 44 67;#X frgb 251 76 0;#X border 2;#X rounded 14;#X shadow 0;#X done;#P user ubutton 286 28 92 23 0 2;#P objectname configbutton;#P window setfont "Sans Serif" 24.;#P comment 19 5 137 196632 m8-control;#B frgb 255 255 255;#P user ubutton 19 5 136 34 0 2;#P objectname enginebutton;#P window setfont "Sans Serif" 9.;#P hidden newex 1209 446 99 196617 pvar entrypointnum;#P user multiSlider 149 459 347 28 0. 1. 1 2936 47 0 0 2 0 0 0;#M frgb 251 77 0;#M brgb 255 255 255;#M rgb2 127 127 127;#M rgb3 0 0 0;#M rgb4 37 52 91;#M rgb5 74 105 182;#M rgb6 112 158 18;#M rgb7 149 211 110;#M rgb8 187 9 201;#M rgb9 224 62 37;#M rgb10 7 114 128;#P objectname m8alpha[1];#P user panel 1 450 499 80;#X brgb 33 44 67;#X frgb 251 76 0;#X border 2;#X rounded 14;#X shadow 0;#X done;#P user panel 0 533 499 50;#X brgb 33 44 67;#X frgb 255 255 255;#X border 2;#X rounded 14;#X shadow 0;#X done;#P window setfont Arial 18.;#P comment 378 236 83 -1205862382 CREATE;#B frgb 255 255 255;#P objectname audioofflabel[4];#P user ubutton 338 234 157 25 0 2;#P objectname create;#P user panel 339 235 155 23;#X brgb 35 140 10;#X frgb 222 222 222;#X border 1;#X rounded 25;#X shadow 0;#X done;#P objectname audiopanel[4];#P window setfont Verdana 36.;#P comment 124 236 99 -1006632924 PLAY;#B frgb 255 255 255;#P user ubutton 11 236 317 47 0 2;#P objectname gobuttonn;#P user panel 10 234 321 50;#X brgb 0 146 204;#X frgb 96 190 255;#X border 1;#X rounded 25;#X shadow 0;#X done;#P objectname gopanel;#P user panel 6 6 380 64;#X brgb 21 34 52;#X frgb 255 255 255;#X border 2;#X rounded 14;#X shadow 0;#X done;#P objectname redpanel;#P window setfont "Sans Serif" 9.;#P hidden newex 789 373 89 196617 pvar configbutton;#N vpatcher 527 177 838 461;#P origin -157 -80;#P window setfont "Sans Serif" 18.;#P window linecount 0;#P hidden newex 374 464 205 196626 var /events.1/interval;#P hidden newex 374 422 120 196626 pvar interval;#P window linecount 1;#P comment 189 194 97 196626 /events.1;#B frgb 255 255 255;#P window setfont "Sans Serif" 14.;#P comment 13 198 68 196622 /interval;#B frgb 255 255 255;#P window setfont "Sans Serif" 18.;#P number 107 194 50 18 0 500 35 3 0 0 0 255 255 255 222 222 222 0 0 0;#P objectname interval;#P user panel 7 188 284 41;#X brgb 33 44 67;#X frgb 251 76 0;#X border 2;#X rounded 14;#X shadow 0;#X done;#P window setfont "Sans Serif" 9.;#P window linecount 0;#P hidden newex 521 191 94 196617 prepend setsymbol;#P hidden newex 458 160 160 196617 variedit /midicc.1/out/interface;#P hidden newex 458 136 51 196617 tosymbol;#P hidden newex 331 36 123 196617 r /midicc.1/in/interface;#P hidden newex 479 37 48 196617 loadbang;#P hidden message 479 58 14 196617 1;#P window linecount 1;#P hidden newex 479 80 46 196617 midiinfo;#P hidden newex 479 106 117 196617 pvar midiinterface[1] 2;#P window setfont "Sans Serif" 14.;#P comment 11 131 109 196622 /out/interface;#B frgb 255 255 255;#P user ubumenu 103 152 180 196622 0 1 1 0;#X setrgb 255 255 255 45 75 112 95 115 162 255 255 255 141 141 141 112 112 112;#X add "AU DLS Synth 1";#X add "Gestionnaire IAC Bus 1";#X add "from MaxMSP 1";#X add "from MaxMSP 2";#X prefix_set 0 0 <none> 0;#P objectname midiinterface[1];#P window setfont "Sans Serif" 18.;#P comment 204 117 83 196626 /midiout;#B frgb 255 255 255;#P window setfont "Sans Serif" 9.;#P window linecount 0;#P hidden newex 331 168 27 196617 t b i;#P hidden newex 331 140 27 196617 i;#P hidden newex 331 114 47 196617 onebang;#P hidden newex 368 88 44 196617 sel 100;#P hidden newex 331 88 27 196617 t b i;#P hidden newex 348 193 123 196617 s /cuesheet.1/step/next;#P hidden newex 331 64 84 196617 notein;#P hidden newex 331 219 88 196617 s /cuesheet.1/go;#P hidden newex 455 367 128 196617 variedit /pjlink.2/shutter;#P hidden newex 455 331 73 196617 pvar shutter2;#P hidden newex 454 271 128 196617 variedit /pjlink.1/shutter;#P hidden newex 454 235 73 196617 pvar shutter1;#P window setfont "Sans Serif" 18.;#P comment 214 41 68 196626 /midiin;#B frgb 255 255 255;#P window setfont "Sans Serif" 9.;#P hidden newex 270 555 94 196617 bgcolor 45 75 112;#P hidden newex 117 662 94 196617 prepend setsymbol;#P hidden newex 172 505 40 196617 t front;#P hidden inlet 173 482 15 0;#N thispatcher;#Q end;#P hidden newobj 172 526 61 196617 thispatcher;#P window setfont "Sans Serif" 14.;#P comment 11 43 87 196622 /in/channel;#B frgb 255 255 255;#P window setfont "Sans Serif" 9.;#P hidden newex -19 628 146 196617 variedit /midicc.1/in/channel;#P hidden newex -19 592 86 196617 pvar midichannel;#P window setfont "Sans Serif" 18.;#P number 105 39 43 18 1 16 35 3 0 0 0 255 255 255 222 222 222 0 0 0;#P objectname midichannel;#P window setfont "Sans Serif" 9.;#P hidden newex 281 637 82 196617 pvar saveconfig;#P window setfont "Sans Serif" 14.;#P comment 11 79 97 196622 /in/interface;#B frgb 255 255 255;#P window setfont "Sans Serif" 9.;#P hidden newex 28 466 48 196617 loadbang;#P hidden message 28 489 14 196617 1;#P window linecount 1;#P hidden newex 121 584 154 196617 variedit /midicc.1/in/interface;#P window setfont "Sans Serif" 14.;#P user ubumenu 103 78 180 196622 0 1 1 0;#X setrgb 255 255 255 45 75 112 95 115 162 255 255 255 141 141 141 112 112 112;#X add "Gestionnaire IAC Bus 1";#X add "to MaxMSP 1";#X add "to MaxMSP 2";#X prefix_set 0 0 <none> 0;#P objectname midiinterface;#P window setfont "Sans Serif" 9.;#P hidden newex 28 511 46 196617 midiinfo;#P hidden newex 121 560 51 196617 tosymbol;#P hidden message 281 658 37 196617 config;#P hidden newex 281 681 92 196617 s /events.2/name;#N vpatcher 20 74 529 636;#P window setfont "Sans Serif" 9.;#P window linecount 2;#P message 275 105 90 196617 \; $1/host 10.0.0.2;#P window linecount 1;#P message 437 473 37 196617 select;#P number 437 492 35 9 0 0 0 3 0 0 0 221 221 221 222 222 222 0 0 0;#P newex 385 453 62 196617 pvar port 2;#P message 385 434 37 196617 select;#P message 308 436 37 196617 select;#P message 231 436 37 196617 select;#P message 154 436 37 196617 select;#P window linecount 2;#P message 275 58 108 196617 \; $1/host 192.168.1.2;#P window linecount 1;#P newex 97 50 83 196617 r /pjlink.2/host;#B color 11;#P newex 50 503 83 196617 s /pjlink.2/host;#B color 11;#P newex 328 374 62 196617 prepend set;#P newex 251 374 62 196617 prepend set;#P newex 174 374 62 196617 prepend set;#P newex 97 374 62 196617 prepend set;#P newex 50 481 241 196617 sprintf %ld.%ld.%ld.%ld;#P newex 50 460 241 196617 bondo 4 1;#P newex 251 309 51 196617 zl ecils 1;#P newex 174 309 51 196617 zl ecils 1;#P newex 328 353 64 196617 fromsymbol;#P newex 328 332 40 196617 itoa;#P number 328 266 35 9 0 0 0 3 0 0 0 221 221 221 222 222 222 0 0 0;#P newex 328 245 27 196617 !-;#P number 206 265 35 9 0 0 0 3 0 0 0 221 221 221 222 222 222 0 0 0;#P newex 206 244 27 196617 !-;#P newex 97 309 51 196617 zl ecils 1;#P newex 251 353 64 196617 fromsymbol;#P newex 251 332 40 196617 itoa;#P number 345 215 35 9 0 0 0 3 0 0 0 221 221 221 222 222 222 0 0 0;#P newex 251 287 87 196617 zl slice;#P newex 174 353 64 196617 fromsymbol;#P newex 174 332 40 196617 itoa;#P number 223 215 35 9 0 0 0 3 0 0 0 221 221 221 222 222 222 0 0 0;#P newex 174 286 42 196617 zl slice;#P newex 97 353 64 196617 fromsymbol;#P newex 97 332 40 196617 itoa;#P newex 97 113 67 196617 t l l;#P newex 97 71 124 196617 t s b;#P number 129 215 35 9 0 0 0 3 0 0 0 221 221 221 222 222 222 0 0 0;#P newex 154 186 86 196617 unpack 0 0 0;#P message 211 140 70 196617 mode group 3;#P newex 97 285 42 196617 zl slice;#P newex 154 165 55 196617 zl group 3;#P newex 154 135 51 196617 zl sub 46;#P newex 97 92 40 196617 atoi;#P inlet 385 414 15 0;#P inlet 308 416 15 0;#P inlet 281 440 15 0;#P inlet 231 416 15 0;#P inlet 204 440 15 0;#P inlet 154 416 15 0;#P inlet 127 440 15 0;#P inlet 50 440 15 0;#P outlet 328 396 15 0;#P outlet 308 456 15 0;#P outlet 251 396 15 0;#P outlet 231 456 15 0;#P outlet 174 396 15 0;#P outlet 154 456 15 0;#P outlet 97 396 15 0;#P connect 45 0 43 0;#P connect 7 0 43 0;#P connect 43 0 44 0;#P connect 44 0 49 0;#P connect 50 0 22 0;#P connect 22 0 15 0;#P connect 15 0 23 0;#P connect 23 0 18 0;#P connect 18 0 34 0;#P connect 34 0 24 0;#P connect 24 0 25 0;#P connect 25 0 45 0;#P connect 45 0 0 0;#P connect 46 0 43 1;#P connect 8 0 43 1;#P connect 43 1 44 1;#P connect 20 0 21 0;#P connect 21 0 18 1;#P connect 23 1 16 0;#P connect 19 0 17 0;#P connect 16 0 17 0;#P connect 17 0 20 0;#P connect 9 0 52 0;#P connect 52 0 1 0;#P connect 18 1 26 0;#P connect 26 0 41 0;#P connect 41 0 28 0;#P connect 28 0 29 0;#P connect 29 0 46 0;#P connect 46 0 2 0;#P connect 47 0 43 2;#P connect 10 0 43 2;#P connect 43 2 44 2;#P connect 21 0 35 0;#P connect 35 0 36 0;#P connect 36 0 26 1;#P connect 22 1 19 0;#P connect 20 1 27 0;#P connect 27 0 35 1;#P connect 11 0 53 0;#P connect 53 0 3 0;#P connect 26 1 30 0;#P connect 30 0 42 0;#P connect 42 0 32 0;#P connect 32 0 33 0;#P connect 33 0 47 0;#P connect 47 0 4 0;#P connect 48 0 43 3;#P connect 12 0 43 3;#P connect 43 3 44 3;#P connect 13 0 54 0;#P connect 54 0 5 0;#P connect 27 0 37 0;#P connect 37 0 38 0;#P connect 38 0 30 1;#P connect 30 1 39 0;#P connect 39 0 40 0;#P connect 40 0 48 0;#P connect 48 0 6 0;#P connect 20 2 31 0;#P connect 31 0 37 1;#P connect 14 0 55 0;#P connect 55 0 56 0;#P connect 56 1 58 0;#P connect 58 0 57 0;#P pop;#P hidden newobj 14 439 240 196617 p;#P hidden newex 245 413 81 196617 pvar hostd[1] 2;#P hidden newex 168 413 81 196617 pvar hostc[1] 2;#P hidden newex 91 413 81 196617 pvar hostb[1] 2;#P hidden newex 14 413 81 196617 pvar hosta[1] 2;#N vpatcher 20 74 529 636;#P window setfont "Sans Serif" 9.;#P window linecount 2;#P message 275 105 90 196617 \; $1/host 10.0.0.2;#P window linecount 1;#P message 437 473 37 196617 select;#P number 437 492 35 9 0 0 0 3 0 0 0 221 221 221 222 222 222 0 0 0;#P newex 385 453 62 196617 pvar port 2;#P message 385 434 37 196617 select;#P message 308 436 37 196617 select;#P message 231 436 37 196617 select;#P message 154 436 37 196617 select;#P window linecount 2;#P message 275 58 108 196617 \; $1/host 192.168.1.2;#P window linecount 1;#P newex 97 50 83 196617 r /pjlink.1/host;#B color 11;#P newex 50 503 83 196617 s /pjlink.1/host;#B color 11;#P newex 328 374 62 196617 prepend set;#P newex 251 374 62 196617 prepend set;#P newex 174 374 62 196617 prepend set;#P newex 97 374 62 196617 prepend set;#P newex 50 481 241 196617 sprintf %ld.%ld.%ld.%ld;#P newex 50 460 241 196617 bondo 4 1;#P newex 251 309 51 196617 zl ecils 1;#P newex 174 309 51 196617 zl ecils 1;#P newex 328 353 64 196617 fromsymbol;#P newex 328 332 40 196617 itoa;#P number 328 266 35 9 0 0 0 3 0 0 0 221 221 221 222 222 222 0 0 0;#P newex 328 245 27 196617 !-;#P number 206 265 35 9 0 0 0 3 0 0 0 221 221 221 222 222 222 0 0 0;#P newex 206 244 27 196617 !-;#P newex 97 309 51 196617 zl ecils 1;#P newex 251 353 64 196617 fromsymbol;#P newex 251 332 40 196617 itoa;#P number 345 215 35 9 0 0 0 3 0 0 0 221 221 221 222 222 222 0 0 0;#P newex 251 287 87 196617 zl slice;#P newex 174 353 64 196617 fromsymbol;#P newex 174 332 40 196617 itoa;#P number 223 215 35 9 0 0 0 3 0 0 0 221 221 221 222 222 222 0 0 0;#P newex 174 286 42 196617 zl slice;#P newex 97 353 64 196617 fromsymbol;#P newex 97 332 40 196617 itoa;#P newex 97 113 67 196617 t l l;#P newex 97 71 124 196617 t s b;#P number 129 215 35 9 0 0 0 3 0 0 0 221 221 221 222 222 222 0 0 0;#P newex 154 186 86 196617 unpack 0 0 0;#P message 211 140 70 196617 mode group 3;#P newex 97 285 42 196617 zl slice;#P newex 154 165 55 196617 zl group 3;#P newex 154 135 51 196617 zl sub 46;#P newex 97 92 40 196617 atoi;#P inlet 385 414 15 0;#P inlet 308 416 15 0;#P inlet 281 440 15 0;#P inlet 231 416 15 0;#P inlet 204 440 15 0;#P inlet 154 416 15 0;#P inlet 127 440 15 0;#P inlet 50 440 15 0;#P outlet 328 396 15 0;#P outlet 308 456 15 0;#P outlet 251 396 15 0;#P outlet 231 456 15 0;#P outlet 174 396 15 0;#P outlet 154 456 15 0;#P outlet 97 396 15 0;#P connect 45 0 43 0;#P connect 7 0 43 0;#P connect 43 0 44 0;#P connect 44 0 49 0;#P connect 50 0 22 0;#P connect 22 0 15 0;#P connect 15 0 23 0;#P connect 23 0 18 0;#P connect 18 0 34 0;#P connect 34 0 24 0;#P connect 24 0 25 0;#P connect 25 0 45 0;#P connect 45 0 0 0;#P connect 46 0 43 1;#P connect 8 0 43 1;#P connect 43 1 44 1;#P connect 20 0 21 0;#P connect 21 0 18 1;#P connect 23 1 16 0;#P connect 16 0 17 0;#P connect 19 0 17 0;#P connect 17 0 20 0;#P connect 9 0 52 0;#P connect 52 0 1 0;#P connect 18 1 26 0;#P connect 26 0 41 0;#P connect 41 0 28 0;#P connect 28 0 29 0;#P connect 29 0 46 0;#P connect 46 0 2 0;#P connect 47 0 43 2;#P connect 10 0 43 2;#P connect 43 2 44 2;#P connect 21 0 35 0;#P connect 35 0 36 0;#P connect 36 0 26 1;#P connect 22 1 19 0;#P connect 20 1 27 0;#P connect 27 0 35 1;#P connect 11 0 53 0;#P connect 53 0 3 0;#P connect 26 1 30 0;#P connect 30 0 42 0;#P connect 42 0 32 0;#P connect 32 0 33 0;#P connect 33 0 47 0;#P connect 47 0 4 0;#P connect 48 0 43 3;#P connect 12 0 43 3;#P connect 43 3 44 3;#P connect 13 0 54 0;#P connect 54 0 5 0;#P connect 27 0 37 0;#P connect 37 0 38 0;#P connect 38 0 30 1;#P connect 30 1 39 0;#P connect 39 0 40 0;#P connect 40 0 48 0;#P connect 48 0 6 0;#P connect 20 2 31 0;#P connect 31 0 37 1;#P connect 14 0 55 0;#P connect 55 0 56 0;#P connect 56 1 58 0;#P connect 58 0 57 0;#P pop;#P hidden newobj 14 378 240 196617 p;#P hidden newex 245 352 67 196617 pvar hostd 2;#P hidden newex 168 352 67 196617 pvar hostc 2;#P hidden newex 91 352 67 196617 pvar hostb 2;#P hidden newex 14 352 67 196617 pvar hosta 2;#P window setfont Arial 18.;#P comment 92 237 133 -1205862382 SAVE CONFIG;#B frgb 255 255 255;#P objectname audioofflabel[1];#P window setfont "Sans Serif" 9.;#P hidden newex 28 536 103 196617 pvar midiinterface 2;#P user ubutton 64 233 178 29 0 2;#P objectname saveconfig;#P user panel 65 233 178 29;#X brgb 251 76 0;#X frgb 255 255 255;#X border 2;#X rounded 14;#X shadow 0;#X done;#P user panel 7 37 280 72;#X brgb 33 44 67;#X frgb 251 76 0;#X border 2;#X rounded 14;#X shadow 0;#X done;#P window setfont "Sans Serif" 18.;#P comment 64 4 173 196626 initialisation values;#B frgb 255 255 255;#P user panel 7 112 280 72;#X brgb 33 44 67;#X frgb 251 76 0;#X border 2;#X rounded 14;#X shadow 0;#X done;#P hidden fasten 29 0 28 0 -14 655 -29 655 -29 586 -14 586;#P hidden connect 28 0 29 0;#P hidden connect 11 0 7 0;#P hidden connect 7 0 11 0;#P hidden connect 16 0 12 0;#P hidden connect 12 0 16 0;#P hidden connect 24 0 23 0;#P hidden connect 20 0 5 0;#P hidden connect 34 0 5 0;#P hidden connect 8 0 11 1;#P hidden connect 13 0 16 1;#P connect 23 0 20 1;#P hidden connect 7 1 11 2;#P hidden connect 12 1 16 2;#P hidden connect 11 1 8 0;#P hidden connect 11 2 8 0;#P hidden connect 16 1 13 0;#P hidden connect 16 2 13 0;#P hidden connect 9 0 11 3;#P hidden connect 14 0 16 3;#P hidden connect 22 1 34 0;#P hidden connect 5 1 19 0;#P hidden connect 19 0 22 0;#P hidden connect 8 1 11 4;#P hidden connect 13 1 16 4;#P hidden connect 11 3 9 0;#P hidden connect 11 4 9 0;#P hidden connect 16 3 14 0;#P hidden connect 16 4 14 0;#P hidden connect 32 0 33 0;#P hidden connect 33 0 31 0;#P hidden connect 10 0 11 5;#P hidden connect 15 0 16 5;#P hidden connect 9 1 11 6;#P hidden connect 14 1 16 6;#P hidden connect 10 1 11 7;#P hidden connect 15 1 16 7;#P hidden connect 11 5 10 0;#P hidden connect 11 6 10 0;#P hidden connect 16 5 15 0;#P hidden connect 16 6 15 0;#P hidden connect 26 0 18 0;#P hidden connect 18 0 17 0;#P hidden connect 56 0 42 0;#P hidden connect 42 0 44 0;#P hidden connect 44 0 46 0;#P hidden connect 46 0 47 0;#P hidden connect 47 0 48 0;#P hidden connect 48 0 41 0;#P hidden connect 44 1 47 1;#P hidden connect 48 1 43 0;#P hidden connect 42 1 45 0;#P hidden connect 45 0 46 1;#P hidden connect 65 0 64 0;#P hidden connect 64 0 65 0;#P hidden fasten 38 0 37 0 459 298 444 298 444 229 459 229;#P hidden connect 37 0 38 0;#P hidden fasten 40 0 39 0 460 394 445 394 445 325 460 325;#P hidden connect 39 0 40 0;#P hidden connect 52 1 57 0;#P hidden connect 57 0 58 0;#P connect 55 0 54 0;#P hidden connect 54 0 53 0;#P hidden connect 59 0 52 0;#P hidden connect 53 0 52 0;#P hidden connect 58 1 59 0;#P pop;#P hidden newobj 789 393 45 196617 p config;#P hidden newex 1273 177 71 196617 pvar m8alpha;#P hidden connect 160 0 33 0;#P hidden connect 160 0 32 0;#P hidden connect 160 0 34 0;#P hidden connect 160 0 35 0;#P hidden connect 62 0 64 0;#P hidden fasten 65 0 66 0 16 879 -1 879 -1 791 16 791;#P hidden connect 66 0 65 0;#P hidden connect 67 0 65 0;#P hidden connect 65 0 63 0;#P hidden connect 68 0 63 0;#P hidden connect 63 0 62 0;#P hidden fasten 74 0 75 0 20 688 3 688 3 600 20 600;#P hidden connect 75 0 74 0;#P hidden connect 76 0 74 0;#P hidden connect 74 0 72 0;#P hidden connect 77 0 72 0;#P hidden connect 72 0 71 0;#P hidden connect 71 0 73 0;#P hidden connect 63 1 62 1;#P hidden connect 72 1 71 1;#P hidden connect 12 0 144 0;#P hidden connect 66 0 68 0;#P hidden connect 75 0 77 0;#P hidden connect 144 2 12 0;#P hidden connect 159 0 140 0;#P hidden connect 157 0 147 0;#P hidden connect 158 0 154 0;#P hidden connect 51 0 52 0;#P hidden connect 52 0 50 0;#P hidden fasten 53 0 49 0 377 706 385 706;#P hidden connect 53 0 55 0;#P hidden connect 55 0 54 0;#P hidden connect 83 0 85 0;#P hidden connect 85 0 84 0;#P hidden connect 60 0 59 0;#P hidden connect 70 0 56 0;#P hidden connect 59 0 56 0;#P hidden fasten 40 0 39 0 557 424 546 424 546 374 557 374;#P hidden fasten 39 0 40 0 557 400 557 400;#P hidden fasten 37 1 59 1 721 735 1007 735 1007 622 602 622;#P hidden connect 70 0 37 0;#P hidden connect 59 1 37 0;#P hidden connect 47 1 45 0;#P hidden connect 166 0 161 0;#P hidden connect 164 0 162 0;#P hidden connect 167 0 162 0;#P hidden connect 162 0 163 0;#P hidden connect 163 0 41 0;#P hidden connect 38 0 42 0;#P hidden connect 42 0 43 0;#P hidden connect 47 1 46 0;#P hidden connect 46 0 48 0;#P hidden connect 166 1 167 0;#P hidden connect 148 0 152 0;#P hidden connect 151 0 149 0;#P hidden connect 152 0 149 0;#P hidden connect 165 0 164 0;#P hidden connect 161 0 164 0;#P hidden fasten 37 0 59 2 620 709 493 709 503 647 688 647;#P hidden connect 152 1 150 0;#P hidden connect 150 0 153 0;#P hidden connect 153 0 151 0;#P hidden connect 166 3 168 0;#P hidden connect 168 0 165 0;#P hidden connect 138 1 150 1;#P hidden connect 70 0 57 0;#P hidden connect 59 3 57 0;#P hidden connect 195 1 197 0;#P hidden connect 197 0 199 0;#P hidden connect 199 0 196 0;#P hidden connect 196 0 198 0;#P hidden connect 198 0 195 0;#P hidden connect 205 0 201 0;#P hidden connect 98 0 99 0;#P hidden fasten 57 0 59 3 746 720 985 720 985 636 774 636;#P hidden connect 2 0 1 0;#P hidden connect 155 0 156 0;#P hidden connect 192 0 193 0;#P hidden fasten 58 0 59 4 896 706 976 706 976 649 860 649;#P hidden connect 123 0 175 0;#P hidden connect 201 1 203 0;#P hidden connect 203 0 204 0;#P hidden connect 204 0 202 0;#P hidden connect 202 0 205 0;#P hidden connect 70 0 58 0;#P hidden connect 59 4 58 0;#P hidden connect 124 0 176 0;#P hidden connect 118 0 117 0;#P hidden connect 120 0 119 0;#P hidden connect 122 2 121 0;#P hidden connect 132 0 133 0;#P hidden fasten 126 0 123 0 1028 379 966 379 966 178 975 178;#P hidden connect 175 0 123 0;#P hidden connect 142 0 143 0;#P hidden connect 123 1 127 0;#P hidden connect 127 0 125 0;#P hidden connect 125 0 129 0;#P hidden connect 129 0 115 0;#P hidden connect 115 0 130 0;#P hidden connect 130 0 126 0;#P hidden fasten 131 0 124 0 1070 378 1179 378 1179 209 1036 209;#P hidden connect 176 0 124 0;#P hidden connect 138 1 123 2;#P hidden connect 117 0 118 0;#P hidden connect 119 0 120 0;#P hidden connect 121 0 122 0;#P hidden connect 174 0 122 0;#P hidden connect 133 0 132 0;#P hidden connect 186 0 183 0;#P hidden connect 187 0 185 0;#P hidden connect 128 0 125 1;#P hidden connect 143 0 138 0;#P hidden connect 92 0 91 0;#P hidden fasten 96 0 90 0 1156 752 1190 752 1190 682 1055 682;#P hidden connect 91 0 90 0;#P hidden connect 13 0 135 0;#P hidden connect 134 0 135 0;#P hidden connect 130 1 131 0;#P hidden connect 124 1 128 0;#P hidden connect 138 1 132 2;#P hidden connect 138 1 122 2;#P hidden connect 138 1 124 2;#P hidden connect 138 1 118 2;#P hidden connect 138 1 120 2;#P hidden connect 138 1 137 0;#P hidden connect 137 0 136 0;#P hidden connect 0 0 116 0;#P hidden connect 177 0 116 0;#P hidden connect 90 1 95 0;#P hidden connect 95 0 93 0;#P hidden connect 93 0 81 0;#P hidden connect 81 0 82 0;#P hidden connect 138 1 135 2;#P hidden connect 95 1 96 0;#P hidden connect 122 0 174 0;#P hidden connect 183 1 188 0;#P hidden connect 185 1 189 0;#P hidden connect 94 3 81 1;#P lcolor 1;#P hidden connect 37 1 81 1;#P hidden connect 93 1 79 0;#P hidden connect 79 0 80 0;#P hidden connect 190 0 182 0;#P hidden connect 191 0 184 0;#P hidden connect 189 0 191 0;#P hidden connect 135 0 13 0;#P hidden connect 138 1 116 2;#P hidden connect 94 3 79 1;#P lcolor 1;#P hidden connect 37 1 79 1;#P hidden connect 188 0 190 0;#P hidden connect 116 0 177 0;#P hidden connect 135 2 134 0;#P hidden connect 93 2 88 0;#P hidden connect 88 0 87 0;#P hidden connect 59 2 94 0;#P lcolor 2;#P hidden connect 94 3 88 1;#P lcolor 1;#P hidden connect 37 1 88 1;#P hidden connect 116 2 0 0;#P hidden connect 182 0 186 0;#P hidden connect 184 0 187 0;#P hidden connect 146 0 141 0;#P hidden connect 141 0 139 0;#P hidden connect 141 1 139 1;#P hidden connect 138 1 139 3;#P pop;