max v2;#N vpatcher 4 44 524 648;#P origin 0 -16;#P window setfont "Sans Serif" 14.;#P number 425 550 70 14 0 0 33 3 0 0 0 255 255 255 222 222 222 0 0 0;#P objectname m8name[2];#P number 176 551 70 14 0 0 33 3 0 0 0 255 255 255 222 222 222 0 0 0;#P objectname m8name[1];#P window setfont "Sans Serif" 9.;#P hidden newex 376 821 50 196617 deferlow;#P hidden newex 376 795 21 196617 t 1;#B color 12;#P hidden newex 376 846 129 196617 s /cuesheet.1/autofill/sw;#B color 12;#P hidden newex 376 772 127 196617 r /events.1/menu/update;#B color 12;#P hidden newex 837 919 98 196617 s /events.1/create;#P hidden newex 837 894 63 196617 pvar create;#P hidden newex 734 917 90 196617 s /events.1/save;#P hidden newex 734 892 55 196617 pvar save;#P hidden newex 620 892 67 196617 pvar gopanel;#P hidden newex 609 846 86 196617 pvar gobuttonn 2;#N vpatcher 72 655 527 851;#P window setfont "Sans Serif" 9.;#P window linecount 1;#P newex 31 41 44 196617 del 250;#P window linecount 0;#P message 330 97 80 196617 frgb 22 222 22;#P message 236 97 81 196617 brgb 222 22 22;#P inlet 236 32 15 0;#P outlet 16 155 15 0;#P message 110 66 86 196617 frgb 96 190 255;#P message 16 66 81 196617 brgb 0 146 204;#P connect 6 0 0 0;#P connect 1 0 2 0;#P connect 0 0 2 0;#P connect 5 0 2 0;#P connect 4 0 2 0;#P connect 3 0 6 0;#P connect 6 0 1 0;#P connect 3 0 4 0;#P connect 3 0 5 0;#P pop;#P hidden newobj 620 870 70 196617 p color;#P window linecount 2;#P hidden message 607 918 103 196617 \; /cuesheet.1/go bang;#P window linecount 1;#P hidden message 1147 733 33 196617 set 0;#P hidden newex 1127 710 30 196617 t s b;#P hidden newex 1263 732 110 196617 route set append clear;#P hidden newex 1127 755 180 196617 sel edit rename delete;#P hidden newex 1046 639 48 196617 loadbang;#P hidden message 1046 662 76 196617 enableitem 0 0;#P hidden newex 1046 687 91 196617 pvar eventmenu 2;#P hidden newex 1239 788 36 196617 zl reg;#P hidden newex 1239 811 96 196617 s /events.1/delete;#P hidden newex 1127 856 36 196617 zl reg;#P hidden newex 1183 854 102 196617 s /events.1/rename;#P hidden newex 1183 833 36 196617 zl reg;#P hidden message 519 603 33 196617 clear;#P window setfont "Sans Serif" 18.;#P hidden comment 894 810 100 196626 /cuesheet;#B frgb 255 255 255;#P window setfont "Sans Serif" 9.;#P hidden newex 585 666 93 196617 r /cuesheet.1/init;#B color 12;#N vpatcher 248 616 1558 901;#P outlet 517 234 15 0;#P inlet 370 24 15 0;#P window setfont "Sans Serif" 9.;#P newex 1002 45 56 196617 route text;#P newex 693 46 56 196617 route text;#P newex 1002 68 273 196617 s /cuesheet.1/nextcomment/from;#B color 12;#P newex 693 69 287 196617 s /cuesheet.1/onstagecomment/from;#B color 12;#P newex 678 130 259 196617 r /cuesheet.1/onstagecomment;#B color 12;#P newex 987 130 245 196617 r /cuesheet.1/nextcomment;#B color 12;#P newex 491 198 62 196617 prepend set;#B color 12;#P newex 491 177 104 196617 r /cuesheet.1/next;#B color 12;#P newex 186 109 34 196617 defer;#B color 12;#P message 127 149 249 196617 brgb 222 22 22 \, rgb3 222 22 22 \, frgb 255 255 255;#P message 186 130 249 196617 brgb 155 55 55 \, rgb3 105 35 35 \, frgb 255 255 255;#P newex 186 67 101 196617 sprintf set %s/done;#B color 12;#P newex 186 88 14 196617 r;#B color 12;#P newex 469 130 143 196617 vari /cuesheet.1/step/next;#B color 12;#P newex 9 109 78 196617 prepend append;#P newex 9 47 189 196617 t l clear b l;#P newex 9 23 116 196617 r /cuesheet.1/current;#B color 12;#P newex 480 153 163 196617 r /cuesheet.1/tosequence-menu;#B color 12;#P newex 447 70 222 196617 s /cuesheet.1/fromsequence-menu;#B color 12;#P inlet 447 24 15 0;#P inlet 1002 24 15 0;#P inlet 469 108 15 0;#P inlet 693 24 15 0;#P outlet 469 234 15 0;#P outlet 987 234 15 0;#P outlet 9 234 15 0;#P outlet 678 234 15 0;#P connect 10 0 11 0;#P connect 11 0 12 0;#P fasten 12 0 1 0 14 180 14 180;#P fasten 11 1 1 0 73 149 14 149;#P fasten 17 0 1 0 132 203 14 203;#P fasten 16 0 1 0 191 213 14 213;#P connect 11 2 17 0;#P connect 11 3 15 0;#P connect 15 0 14 0;#P connect 14 0 18 0;#P fasten 27 0 16 0 375 127 191 127;#P connect 18 0 16 0;#P connect 7 0 8 0;#P connect 5 0 13 0;#P connect 13 0 3 0;#P connect 20 0 3 0;#P connect 9 0 3 0;#P connect 19 0 20 0;#P connect 9 0 28 0;#P connect 13 0 28 0;#P connect 19 0 28 0;#P connect 22 0 0 0;#P connect 4 0 25 0;#P connect 25 0 23 0;#P connect 21 0 2 0;#P connect 6 0 26 0;#P connect 26 0 24 0;#P pop;#P hidden newobj 499 723 355 196617 p;#P hidden newex 879 747 103 196617 pvar nextcomment 2;#B color 14;#P hidden newex 729 747 108 196617 pvar onstagecomment;#B color 14;#P hidden newex 499 747 68 196617 pvar onstage;#B color 14;#P hidden newex 603 751 111 196617 pvar sequence-menu 2;#B color 14;#P hidden newex 1127 880 86 196617 s /events.1/edit;#P hidden newex 1177 660 62 196617 prepend set;#P window setfont "Sans Serif" 18.;#P hidden comment 78 725 101 196626 /shutter 2;#B frgb 255 255 255;#P window setfont "Sans Serif" 9.;#P hidden newex 148 650 51 196617 route set;#P hidden newex 36 650 101 196617 pvar shutterbutton2;#B color 12;#P window setfont Helvetica 9.;#P hidden newex 24 614 68 1376265 var /dmx.2/val;#B color 11;#P hidden toggle 24 679 15 0;#P window setfont "Sans Serif" 9.;#P hidden newex 24 768 96 196617 pvar shutterpanel2;#P hidden newex 24 703 60 196617 sel 0 1;#P window linecount 2;#N vpatcher 516 435 973 696;#P window setfont "Sans Serif" 9.;#P message 233 94 155 196617 brgb 55 155 55 \, frgb 22 222 22;#P inlet 236 32 15 0;#P outlet 16 155 15 0;#P window linecount 1;#P message 14 89 170 196617 brgb 222 15 15 \, frgb 222 222 222;#P inlet 16 33 15 0;#P window linecount 0;#P newex 236 60 38 196617 del 10;#P connect 4 0 2 0;#P connect 2 0 3 0;#P connect 5 0 3 0;#P connect 0 0 5 0;#P connect 1 0 0 0;#P pop;#P hidden newobj 24 726 35 196617 p color;#P window setfont "Sans Serif" 18.;#P window linecount 1;#P hidden comment 68 922 83 196626 /shutter;#B frgb 255 255 255;#P window setfont "Sans Serif" 9.;#P hidden newex 135 841 51 196617 route set;#P hidden newex 32 841 95 196617 pvar shutterbutton;#B color 12;#P window setfont Helvetica 9.;#P hidden newex 20 805 68 1376265 var /dmx.1/val;#B color 11;#P hidden toggle 20 870 15 0;#P window setfont "Sans Serif" 9.;#P hidden newex 19 950 90 196617 pvar shutterpanel;#P hidden newex 20 894 60 196617 sel 0 1;#P window linecount 2;#N vpatcher 516 435 973 696;#P window setfont "Sans Serif" 9.;#P message 233 94 155 196617 brgb 55 155 55 \, frgb 22 222 22;#P inlet 236 32 15 0;#P outlet 16 155 15 0;#P message 14 89 170 196617 brgb 222 15 15 \, frgb 222 222 222;#P inlet 16 33 15 0;#P newex 236 60 38 196617 del 10;#P connect 4 0 2 0;#P connect 5 0 3 0;#P connect 2 0 3 0;#P connect 0 0 5 0;#P connect 1 0 0 0;#P pop;#P hidden newobj 20 917 35 196617 p color;#P window setfont "Sans Serif" 18.;#P number 453 154 40 18 0 0 160 3 0 0 0 255 255 255 222 222 222 0 0 0;#P objectname currentsteper;#P number 451 76 41 18 0 0 32 3 0 0 0 255 255 255 222 222 222 0 0 0;#P objectname currentstep;#P window setfont "Sans Serif" 9.;#P hidden message 193 134 111 196617 \; /oscreceive.1/print 1;#P window setfont "Sans Serif" 14.;#P user ubumenu 393 499 45 196622 0 1 1 0;#X setrgb 255 255 255 45 75 112 95 115 162 255 255 255 141 141 141 112 112 112;#X add 1;#X add 2;#X add 3;#X add 4;#X add 5;#X add 6;#X add 7;#X add 8;#X prefix_set 0 0 <none> 0;#P objectname setB;#P user ubumenu 146 499 45 196622 0 1 1 0;#X setrgb 255 255 255 45 75 112 95 115 162 255 255 255 141 141 141 112 112 112;#X add 1;#X add 2;#X add 3;#X add 4;#X add 5;#X add 6;#X add 7;#X add 8;#X prefix_set 0 0 <none> 0;#P objectname setA;#P window linecount 1;#P comment 266 500 113 196622 /modul8/set/B;#B frgb 255 255 255;#P comment 5 500 113 196622 /modul8/set/A;#B frgb 255 255 255;#P flonum 307 386 46 14 0. 1. 35 3 0 0 0 255 255 255 222 222 222 0 0 0;#P objectname loopoutnum;#P flonum 307 416 46 14 0. 1. 35 3 0 0 0 255 255 255 222 222 222 0 0 0;#P objectname entrypointnum;#P flonum 307 363 46 14 0. 1. 35 3 0 0 0 255 255 255 222 222 222 0 0 0;#P objectname loopinnum;#P flonum 307 335 46 14 0. 1. 35 3 0 0 0 255 255 255 222 222 222 0 0 0;#P objectname ratenum;#P flonum 307 303 46 14 0. 1. 35 3 0 0 0 255 255 255 222 222 222 0 0 0;#P objectname alphanum;#P hidden toggle 713 199 15 0;#P hidden button 657 191 15 0;#P window setfont "Sans Serif" 9.;#P hidden newex 628 165 99 196617 pvar enginebutton 4;#B color 14;#P hidden newex 714 217 32 196617 sel 0;#P hidden message 628 208 29 196617 stop;#P hidden button 629 246 15 0;#P hidden newex 629 225 50 196617 del 1000;#P hidden button 628 189 15 0;#P hidden message 105 81 33 196617 clear;#P window setfont "Sans Serif" 12.;#P message 365 337 47 196620 state;#B color 1;#P message 414 337 44 196620 initall;#B color 1;#P message 459 337 30 196620 init;#B color 1;#P hidden button 345 363 22 0;#P objectname m8initall;#P hidden button 345 333 22 0;#P objectname m8init;#P window setfont "Sans Serif" 14.;#P comment 5 466 149 196622 /modul8/crossfader;#B frgb 255 255 255;#P hidden button 345 305 22 0;#P objectname m8temp;#P window setfont "Sans Serif" 12.;#P comment 5 418 89 196620 /entrypoint;#B frgb 255 255 255;#P comment 17 388 77 196620 /loop/out;#B frgb 255 255 255;#P comment 24 369 65 196620 /loop/in;#B frgb 255 255 255;#P user multiSlider 81 413 225 30 0. 1. 1 2936 47 0 0 2 0 0 0;#M frgb 173 173 173;#M brgb 255 255 255;#M rgb2 127 127 127;#M rgb3 0 0 0;#M rgb4 37 52 91;#M rgb5 74 105 182;#M rgb6 112 158 18;#M rgb7 149 211 110;#M rgb8 187 9 201;#M rgb9 224 62 37;#M rgb10 7 114 128;#P objectname m8entrypoint;#P user rslider 81 366 224 44 100 1 0 7 1;#P objectname m8looppoints;#P window setfont "Sans Serif" 14.;#P number 455 363 39 14 0 135 35 3 0 0 0 255 255 255 222 222 222 0 0 0;#P objectname m8name;#P window setfont "Sans Serif" 12.;#P comment 361 363 49 196620 /name;#B frgb 255 255 255;#P comment 361 418 41 196620 /loop;#B frgb 255 255 255;#P comment 361 391 70 196620 /direction;#B frgb 255 255 255;#P window setfont "Sans Serif" 14.;#P user ubumenu 401 416 93 196622 0 1 1 0;#X setrgb 0 0 0 255 255 255 234 234 234 4 4 4 141 141 141 112 112 112;#X add loop;#X add palindrome;#X add oneshot;#X prefix_set 0 0 <none> 0;#P objectname m8loop;#P window setfont "Sans Serif" 12.;#P comment 34 307 53 196620 /alpha;#B frgb 255 255 255;#P user multiSlider 81 301 224 30 0. 1. 1 2936 47 0 0 2 0 0 0;#M frgb 253 27 27;#M brgb 255 255 255;#M rgb2 127 127 127;#M rgb3 0 0 0;#M rgb4 37 52 91;#M rgb5 74 105 182;#M rgb6 112 158 18;#M rgb7 149 211 110;#M rgb8 187 9 201;#M rgb9 224 62 37;#M rgb10 7 114 128;#P objectname m8alpha;#P comment 36 338 46 196620 /rate;#B frgb 255 255 255;#P user multiSlider 81 333 224 30 0. 1. 1 2936 47 0 0 2 0 0 0;#M frgb 75 75 75;#M brgb 255 255 255;#M rgb2 127 127 127;#M rgb3 0 0 0;#M rgb4 37 52 91;#M rgb5 74 105 182;#M rgb6 112 158 18;#M rgb7 149 211 110;#M rgb8 187 9 201;#M rgb9 224 62 37;#M rgb10 7 114 128;#P objectname m8rate;#P window setfont "Sans Serif" 20.;#P user ubumenu 365 301 128 196628 0 1 1 0;#X setrgb 0 0 0 255 255 255 234 234 234 4 4 4 141 141 141 112 112 112;#X add /modul8.1;#X add /modul8.2;#X add /modul8.3;#X add /modul8.4;#X add /modul8.5;#X add /modul8.6;#X add /modul8.7;#X add /modul8.8;#X add /modul8.9;#X add /modul8.10;#X prefix_set 0 0 <none> 0;#P objectname m8layers;#P window setfont Helvetica 18.;#P user ubumenu 393 45 99 1376274 0 1 1 0;#X setrgb 0 0 0 255 255 255 234 234 234 4 4 4 141 141 141 112 112 112;#X add <choose>;#X add edit;#X add rename;#X add delete;#X prefix_set 0 0 <none> 0;#P objectname eventmenu;#P window setfont "Sans Serif" 10.;#P comment 186 22 43 196618 V 0.14;#B frgb 255 255 255;#P window setfont "Sans Serif" 9.;#P hidden newex 629 362 72 196617 pvar redpanel;#B color 14;#P window setfont "Sans Serif" 14.;#N vpatcher 744 262 949 447;#P window setfont "Sans Serif" 9.;#P message 50 96 75 196617 brgb 21 34 52;#P message 67 75 81 196617 brgb 180 30 30;#P window setfont "Sans Serif" 10.;#P newex 50 50 44 196618 sel 0 1;#P inlet 50 30 15 0;#P outlet 50 116 15 0;#P connect 1 0 2 0;#P connect 2 0 4 0;#P connect 4 0 0 0;#P connect 3 0 0 0;#P connect 2 1 3 0;#P pop;#P hidden newobj 629 332 85 196622 p redpanel;#B color 6;#P window setfont "Sans Serif" 9.;#P window linecount 2;#P hidden message 629 266 100 196617 \; /engine/editor open;#P window setfont Helvetica 14.;#P window linecount 1;#N vpatcher 533 44 1022 505;#P origin 175 37;#P window setfont "Sans Serif" 9.;#P window linecount 0;#P newex 391 371 68 196617 s /oscsend.2;#P newex 391 340 62 196617 r /external;#P window setfont "Sans Serif" 14.;#N vpatcher 171 679 473 937;#P window setfont "Sans Serif" 9.;#P newex 157 115 58 196617 pak i 2000;#P newex 17 116 58 196617 pak i 2000;#P newex 157 150 68 196617 line;#P newex 17 150 68 196617 line;#P newex 205 83 78 196617 r /dmx.2/time;#B color 12;#P newex 65 82 78 196617 r /dmx.1/time;#B color 12;#P newex 157 182 84 196617 prepend /circ/2;#P newex 157 56 38 196617 * 255;#P newex 157 29 72 196617 r /dmx.2/val;#B color 12;#P newex 17 182 84 196617 prepend /circ/1;#P newex 17 56 38 196617 * 255;#P newex 17 215 115 196617 udpsend localhost 7000;#P newex 17 29 72 196617 r /dmx.1/val;#B color 12;#P connect 0 0 2 0;#P connect 2 0 11 0;#P connect 11 0 9 0;#P connect 9 0 3 0;#P connect 3 0 1 0;#P fasten 6 0 1 0 162 207 22 207;#P connect 7 0 11 1;#P connect 4 0 5 0;#P connect 5 0 12 0;#P connect 12 0 10 0;#P connect 10 0 6 0;#P connect 8 0 12 1;#P pop;#P newobj 387 291 52 196622 p dmx;#B color 6;#P window setfont "Sans Serif" 9.;#N coll /events.2/state;#P newobj 353 243 103 196617 coll /events.2/state;#N coll /events.1/state;#P newobj 354 221 103 196617 coll /events.1/state;#P window setfont "Sans Serif" 10.;#P newex 335 20 51 196618 loadbang;#P newex 335 47 52 196618 deferlow;#P newex 335 99 104 196618 s /tapemovie/build;#P newex 335 73 52 196618 deferlow;#P window setfont "Sans Serif" 9.;#P newex 209 51 89 196617 pvar ininitmenu 2;#B color 14;#P window setfont "Sans Serif" 14.;#P user ubumenu 186 0 110 196622 0 0 1 0;#X setrgb 0 0 0 230 230 230 255 255 255 0 146 207 141 141 141 0 146 207;#X add init;#X prefix_set 0 0 <none> 0;#P objectname ininitmenu;#P window setfont "Sans Serif" 12.;#P user ubumenu 186 24 110 196620 0 0 1 0;#X setrgb 0 0 0 230 230 230 255 255 255 0 146 207 141 141 141 0 146 207;#X add Configuration;#X add edit-config;#X add write-config;#X add edit-shortcuts;#X add write-shortcuts;#X prefix_set 0 0 <none> 0;#P objectname configmenu;#P window setfont "Sans Serif" 10.;#P newex 87 3 51 196618 loadbang;#P window setfont "Sans Serif" 9.;#P message 87 30 76 196617 enableitem 0 0;#P window setfont "Sans Serif" 10.;#P newex 16 18 66 196618 prepend set;#P newex 100 97 31 196618 t 0 l;#P window setfont "Sans Serif" 9.;#P newex 88 51 93 196617 pvar configmenu 2;#B color 14;#P window setfont "Sans Serif" 14.;#N vpatcher 576 382 1116 641;#P window setfont "Sans Serif" 9.;#P window linecount 0;#P newex 16 204 381 196617 makeparam-m8-master crossfader_slider /modul8/crossfader /modul8 f 1 0 1 1;#P newex 318 141 124 196617 r /oscreceive.1/activity;#B color 12;#P newex 318 172 78 196617 s /frommodul8;#B color 12;#P comment 262 120 259 196617 switch off osc send to modul8 to avoid resetting layers;#P newex 318 78 31 196617 == 0;#P newex 318 101 87 196617 s /oscsend.1/sw;#P inlet 318 37 15 0;#P window linecount 2;#P message 18 162 270 196617 \; /oscsend.1 /md8key/ctrl_master_layerSetGroupA/0 \$1;#P window linecount 1;#P newex 18 141 27 196617 - 1;#P newex 18 114 89 196617 r /modul8/set/A;#B color 12;#P window linecount 2;#P message 17 81 269 196617 \; /oscsend.1 /md8key/ctrl_master_layerSetGroupB/0 \$1;#P window linecount 1;#P newex 17 58 27 196617 - 1;#P newex 17 33 88 196617 r /modul8/set/B;#B color 12;#P connect 0 0 1 0;#P connect 1 0 2 0;#P connect 3 0 4 0;#P connect 4 0 5 0;#P connect 6 0 8 0;#P connect 8 0 7 0;#P connect 11 0 10 0;#P pop;#P newobj 168 219 73 196622 p modul8;#B color 6;#P window setfont "Sans Serif" 9.;#P window linecount 2;#P newex 121 131 222 196617 sel init edit-config write-config edit-shortcuts write-shortcuts;#P window setfont "Sans Serif" 18.;#P window linecount 1;#P comment 214 270 154 196626 project manager;#B frgb 0 124 206;#P window setfont "Sans Serif" 9.;#P window linecount 2;#P message 79 321 214 196617 \; /tapemovie/chooseprojectwindow/open bang;#P outlet 249 219 15 0;#P button 36 385 15 0;#P window linecount 1;#P message 36 365 37 196617 config;#P newex 147 84 163 196617 editorwindow /engine /tapemovie;#B color 6;#N thispatcher;#Q end;#P newobj 147 104 61 196617 thispatcher;#P toggle 249 195 15 0;#P button 79 136 15 0;#P toggle 352 170 15 0;#P newex 36 97 48 196617 loadbang;#N vpatcher 741 405 1698 683;#P button 490 30 15 0;#P window setfont "Sans Serif" 9.;#P window linecount 1;#P newex 43 58 34 196617 b 2;#P message 68 124 22 196617 set;#P inlet 796 34 15 0;#P outlet 796 218 15 0;#P outlet 301 217 15 0;#P outlet 181 216 15 0;#P newex 796 150 123 196617 var /tapemovie/verbose;#P newex 301 150 120 196617 r /tapemovie/init/state;#P newex 181 150 110 196617 r /tapemovie/building;#P outlet 43 215 15 0;#P newex 43 185 62 196617 prepend set;#P newex 43 150 132 196617 r /tapemovie/projectname;#P inlet 598 34 15 0;#P inlet 460 34 15 0;#P inlet 341 34 15 0;#P inlet 251 34 15 0;#P inlet 142 34 15 0;#P inlet 43 34 15 0;#P newex 638 90 149 196617 s /tapemovie/shortcuts/reset;#P newex 598 63 50 196617 t write b;#P newex 460 63 37 196617 t open;#P newex 460 90 170 196617 s /tapemovie/tm_shortcuts/editor;#P newex 341 90 88 196617 s tm_init2/write;#P newex 251 90 83 196617 s tm_init2/open;#P newex 142 90 97 196617 s /tapemovie/build;#P window linecount 0;#P newex 43 90 95 196617 s /tapemovie/path;#P connect 8 0 25 0;#P connect 25 0 0 0;#P connect 14 0 15 0;#P connect 24 0 16 0;#P connect 15 0 16 0;#P connect 25 1 24 0;#P connect 9 0 1 0;#P connect 17 0 20 0;#P connect 10 0 2 0;#P connect 18 0 21 0;#P connect 11 0 3 0;#P connect 12 0 5 0;#P connect 26 0 5 0;#P connect 5 0 4 0;#P connect 6 0 4 0;#P connect 13 0 6 0;#P connect 6 1 7 0;#P connect 23 0 19 0;#P connect 19 0 22 0;#P pop;#P newobj 79 168 266 196617 p tapemovie.control;#P comment 348 151 46 196617 verbose;#P user textedit 79 294 350 317 32897 3 9 /tapemovie-lib/default-project;#P newex 285 196 85 196617 tapemovie.model;#B color 14;#P window setfont "Sans Serif" 18.;#P comment 225 358 144 196626 config manager;#B frgb 0 124 206;#P user panel 68 273 300 80;#X brgb 255 255 255;#X frgb 0 0 0;#X border 1;#X rounded 0;#X shadow 0;#X done;#P bpatcher 36 406 330 22 0 0 tm_configeditormenu.mxt 1;#P user panel 33 359 335 78;#X brgb 255 255 255;#X frgb 0 0 0;#X border 1;#X rounded 0;#X shadow 0;#X done;#P fasten 22 0 23 0 105 132 12 132 12 12 21 12;#P lcolor 2;#P fasten 8 0 14 0 41 120 41 120;#P connect 14 0 15 0;#P connect 15 0 1 0;#P connect 8 0 10 0;#P connect 10 0 7 0;#P connect 7 0 5 0;#P connect 25 0 24 0;#P connect 23 0 21 0;#P connect 24 0 21 0;#P fasten 21 1 22 0 176 73 105 73;#P fasten 28 1 22 0 293 73 105 73;#P connect 22 1 19 0;#P connect 19 0 7 1;#P fasten 12 0 13 0 152 124 143 124 143 81 152 81;#P connect 13 0 12 0;#P connect 19 1 7 2;#P fasten 11 0 20 0 254 213 173 213;#P connect 19 2 7 3;#P connect 19 3 7 4;#P fasten 7 1 11 0 169 191 254 191;#P connect 7 2 11 0;#P connect 11 0 16 0;#P connect 19 4 7 5;#P connect 9 0 7 6;#P connect 32 0 31 0;#P connect 31 0 29 0;#P connect 29 0 30 0;#P connect 7 3 9 0;#P connect 36 0 37 0;#P pop;#P hidden newobj 629 302 84 1376270 p engine;#B color 6;#P window setfont "Sans Serif" 14.;#P user textedit 7 183 494 234 32897 3 14;#P objectname onstagecomment;#P window setfont "Sans Serif" 18.;#P user ubumenu 7 154 446 196626 1 0 0 2;#X setrgb 255 255 255 155 55 55 255 255 255 4 4 4 105 35 35 16 207 108;#X prefix_set 0 0 <none> 0;#P objectname onstage;#P user ubumenu 6 76 446 196626 0 1 1 2;#X setrgb 0 0 0 55 155 55 234 234 234 4 4 4 141 141 141 112 112 112;#X prefix_set 0 0 <none> 0;#P objectname sequence-menu;#P window setfont "Sans Serif" 14.;#P user textedit 7 103 494 153 32897 3 14;#P objectname nextcomment;#P window setfont "Sans Serif" 10.;#P comment 19 40 127 196618 Renaud Rubiano - 2012;#B frgb 255 255 255;#P window setfont Arial 18.;#P comment 289 549 85 -1205862382 /dmx.2;#B frgb 255 255 255;#P user panel 265 549 144 24;#X brgb 55 155 55;#X frgb 22 222 22;#X border 1;#X rounded 25;#X shadow 0;#X done;#P objectname shutterpanel2;#P comment 38 549 85 -1205862382 /dmx.1;#B frgb 255 255 255;#P user panel 6 549 157 24;#X brgb 55 155 55;#X frgb 22 222 22;#X border 1;#X rounded 25;#X shadow 0;#X done;#P objectname shutterpanel;#P user ubutton 267 549 140 21 0 2;#P objectname shutterbutton2;#P user ubutton 8 549 153 21 0 2;#P objectname shutterbutton;#P window setfont "Sans Serif" 14.;#P user ubumenu 453 388 40 196622 0 1 1 0;#X setrgb 0 0 0 255 255 255 234 234 234 4 4 4 141 141 141 112 112 112;#X add ->;#X add <-;#X prefix_set 0 0 <none> 0;#P objectname m8direction;#P window setfont Arial 18.;#P comment 390 266 58 -1205862382 SAVE;#B frgb 255 255 255;#P objectname audioofflabel[1];#P user ubutton 338 263 157 26 0 2;#P objectname save;#P user panel 339 264 155 24;#X brgb 241 134 39;#X frgb 222 222 222;#X border 1;#X rounded 25;#X shadow 0;#X done;#P objectname audiopanel[1];#P window setfont Arial 14.;#P comment 300 31 65 -1205862386 CONFIG;#B frgb 255 255 255;#P objectname audioofflabel[2];#P user panel 287 30 87 21;#X brgb 0 146 207;#X frgb 222 222 222;#X border 1;#X rounded 25;#X shadow 0;#X done;#P objectname audiopanel[2];#P window setfont "Sans Serif" 10.;#P comment 19 51 211 196618 tapemovie based software - didascalie.net;#B frgb 0 147 203;#P user panel 1 295 499 152;#X brgb 33 44 67;#X frgb 251 76 0;#X border 2;#X rounded 14;#X shadow 0;#X done;#P user ubutton 286 30 92 23 0 2;#P objectname configbutton;#P window setfont "Sans Serif" 24.;#P comment 19 7 137 196632 m8-control;#B frgb 255 255 255;#P user ubutton 19 7 136 34 0 2;#P objectname enginebutton;#P user multiSlider 149 461 347 28 0. 1. 1 2936 47 0 0 2 0 0 0;#M frgb 251 77 0;#M brgb 255 255 255;#M rgb2 127 127 127;#M rgb3 0 0 0;#M rgb4 37 52 91;#M rgb5 74 105 182;#M rgb6 112 158 18;#M rgb7 149 211 110;#M rgb8 187 9 201;#M rgb9 224 62 37;#M rgb10 7 114 128;#P objectname m8alpha[1];#P user panel 1 452 499 80;#X brgb 33 44 67;#X frgb 251 76 0;#X border 2;#X rounded 14;#X shadow 0;#X done;#P window setfont Arial 18.;#P comment 378 238 83 -1205862382 CREATE;#B frgb 255 255 255;#P objectname audioofflabel[4];#P user ubutton 338 236 157 25 0 2;#P objectname create;#P user panel 339 237 155 23;#X brgb 35 140 10;#X frgb 222 222 222;#X border 1;#X rounded 25;#X shadow 0;#X done;#P objectname audiopanel[4];#P window setfont Verdana 36.;#P comment 124 238 99 -1994391516 PLAY;#B frgb 255 255 255;#P user ubutton 11 238 317 47 0 2;#P objectname gobuttonn;#P user panel 10 236 321 50;#X brgb 0 146 204;#X frgb 96 190 255;#X border 1;#X rounded 25;#X shadow 0;#X done;#P objectname gopanel;#P user panel 6 8 380 64;#X brgb 180 30 30;#X frgb 255 255 255;#X border 2;#X rounded 14;#X shadow 0;#X done;#P objectname redpanel;#P window setfont Helvetica 9.;#P hidden newex 202 697 73 1376265 var /dmx.1/time;#B color 11;#P hidden newex 234 640 73 1376265 var /dmx.2/time;#B color 11;#P window setfont "Sans Serif" 9.;#P window linecount 2;#P hidden newex 516 465 121 196617 variedit /modul8/crossfader /modul8;#P window linecount 1;#P hidden newex 552 433 94 196617 bgcolor 45 75 112;#P window setfont "Sans Serif" 10.;#P hidden newex 552 404 159 196618 editorwindow /app /tapemovie;#B color 6;#N thispatcher;#Q end;#P hidden newobj 552 380 66 196618 thispatcher;#P window setfont "Sans Serif" 9.;#P hidden newex 902 343 27 196617 - 1;#P hidden newex 902 292 62 196617 prepend set;#P hidden newex 902 260 27 196617 + 1;#P hidden newex 902 318 97 196617 pvar currentsteper;#P hidden newex 764 228 148 196617 var /cuesheet.1/step/current;#P hidden newex 763 86 62 196617 prepend set;#P hidden newex 763 133 27 196617 - 1;#P hidden newex 763 64 27 196617 + 1;#P hidden newex 763 112 87 196617 pvar currentstep;#P hidden newex 763 157 134 196617 var /cuesheet.1/step/next;#P hidden newex 1237 529 62 196617 prepend set;#P hidden newex 1174 623 27 196617 - 1;#P hidden newex 1174 536 27 196617 - 1;#P hidden newex 1292 602 27 196617 + 1;#P hidden newex 1292 554 27 196617 + 1;#P hidden newex 1060 602 99 196617 var /modul8/set/B;#P hidden newex 1221 601 54 196617 pvar setB;#P hidden newex 1060 564 100 196617 var /modul8/set/A;#P hidden newex 1221 563 55 196617 pvar setA;#P hidden newex 1238 221 75 196617 pvar alphanum;#P hidden newex 953 206 84 196617 pvar loopoutnum;#P hidden newex 900 176 78 196617 pvar loopinnum;#P hidden newex 1171 126 71 196617 pvar ratenum;#P window linecount 11;#P hidden message 811 445 111 196617 \; /modul8.1/init bang \; /modul8.2/init bang \; /modul8.3/init bang \; /modul8.4/init bang \; /modul8.5/init bang \; /modul8.6/init bang \; /modul8.7/init bang \; /modul8.8/init bang \; /modul8.9/init bang \; /modul8.10/init bang \;;#P window linecount 1;#P hidden newex 811 415 74 196617 pvar m8initall;#P hidden newex 716 505 79 196617 sprintf %s/init;#P hidden newex 674 455 52 196617 b 2;#P hidden newex 716 524 68 196617 prepend send;#P hidden newex 716 481 36 196617 zl reg;#P hidden newex 674 552 47 196617 forward;#P hidden newex 674 433 63 196617 pvar m8init;#P hidden newex 1378 507 70 196617 pvar m8temp;#P hidden message 996 527 133 196617 setsymbol /modul8.1 \, bang;#P hidden newex 996 496 99 196617 r /instruments/init;#P window setfont Times 9.;#P hidden newex 1378 533 27 1310729 b 2;#B color 6;#P hidden newex 1379 564 110 1310729 storetemppathu /modul8.1;#B color 6;#P window setfont "Sans Serif" 9.;#P hidden newex 1067 422 86 196617 pvar m8layers 2;#P hidden newex 1145 446 50 196617 deferlow;#P window setfont "Sans Serif" 12.;#N vpatcher 30 89 293 402;#P origin 0 -15;#P window setfont "Sans Serif" 9.;#P window linecount 0;#P newex 91 178 64 196617 sprintf %s_;#P window linecount 2;#P newex 50 138 39 196617 route symbol;#P window linecount 1;#P newex 50 87 46 196617 t dump l;#P newex 50 65 114 196617 sprintf refer %s/state;#P newex 50 254 47 196617 forward;#P window linecount 2;#P newex 91 210 42 196617 prepend send;#P newex 91 138 39 196617 route symbol;#P window linecount 1;#N coll /modul8.1/state;#P newobj 50 114 134 196617 coll;#B color 5;#P inlet 50 21 15 0;#P connect 0 0 5 0;#P connect 5 0 6 0;#P connect 6 0 1 0;#P connect 6 1 1 0;#P connect 1 0 7 0;#P fasten 7 1 4 0 84 191 55 191;#P connect 7 0 4 0;#P fasten 3 0 4 0 96 246 55 246;#P connect 1 1 2 0;#P connect 2 0 8 0;#P connect 8 0 3 0;#P pop;#P hidden newobj 1145 475 109 196620 p re-send values;#B color 7;#P window setfont "Sans Serif" 9.;#P hidden newex 1070 392 131 196617 varieditu /entrypoint $1;#P hidden newex 1253 385 95 196617 pvar m8entrypoint;#P hidden newex 979 151 66 196617 pvar m8loop;#P hidden newex 1059 149 102 196617 varieditu /loop $1;#P hidden newex 1082 352 40 196617 / 100.;#P hidden newex 1040 326 52 196617 unpack i i;#P hidden newex 1040 280 62 196617 prepend set;#P hidden newex 1085 233 41 196617 * 100.;#P hidden newex 1040 236 41 196617 * 100.;#P hidden newex 1040 352 40 196617 / 100.;#P hidden newex 1040 259 37 196617 pak i i;#P hidden newex 1048 210 122 196617 varieditu /loop/out $1;#P hidden newex 987 176 116 196617 varieditu /loop/in $1;#P hidden newex 1059 124 103 196617 varieditu /rate $1;#P hidden newex 979 124 67 196617 pvar m8rate;#P hidden newex 1059 98 124 196617 varieditu /direction $1;#P hidden newex 979 98 88 196617 pvar m8direction;#P hidden newex 1059 72 107 196617 varieditu /name $1;#P hidden newex 979 72 71 196617 pvar m8name;#P hidden newex 1146 174 136 196617 varieditu /color/alpha $1;#P hidden newex 1040 301 93 196617 pvar m8looppoints;#P hidden newex 1226 442 99 196617 pvar entrypointnum;#P hidden newex 806 369 89 196617 pvar configbutton;#N vpatcher 527 177 838 461;#P origin -157 -80;#P window setfont "Sans Serif" 18.;#P window linecount 0;#P hidden newex 374 464 205 196626 var /events.1/interval;#P hidden newex 374 422 120 196626 pvar interval;#P window linecount 1;#P comment 189 194 97 196626 /events.1;#B frgb 255 255 255;#P window setfont "Sans Serif" 14.;#P comment 13 198 68 196622 /interval;#B frgb 255 255 255;#P window setfont "Sans Serif" 18.;#P number 107 194 50 18 0 500 35 3 0 0 0 255 255 255 222 222 222 0 0 0;#P objectname interval;#P user panel 7 188 284 41;#X brgb 33 44 67;#X frgb 251 76 0;#X border 2;#X rounded 14;#X shadow 0;#X done;#P window setfont "Sans Serif" 9.;#P window linecount 0;#P hidden newex 521 191 94 196617 prepend setsymbol;#P hidden newex 458 160 160 196617 variedit /midicc.1/out/interface;#P hidden newex 458 136 51 196617 tosymbol;#P hidden newex 331 36 123 196617 r /midicc.1/in/interface;#P hidden newex 479 37 48 196617 loadbang;#P hidden message 479 58 14 196617 1;#P window linecount 1;#P hidden newex 479 80 46 196617 midiinfo;#P hidden newex 479 106 117 196617 pvar midiinterface[1] 2;#P window setfont "Sans Serif" 14.;#P comment 11 131 109 196622 /out/interface;#B frgb 255 255 255;#P user ubumenu 103 152 180 196622 0 1 1 0;#X setrgb 255 255 255 45 75 112 95 115 162 255 255 255 141 141 141 112 112 112;#X add "AU DLS Synth 1";#X add "Gestionnaire IAC Bus 1";#X add "RŽseau Session 1";#X add "from MaxMSP 1";#X add "from MaxMSP 2";#X prefix_set 0 0 <none> 0;#P objectname midiinterface[1];#P window setfont "Sans Serif" 18.;#P comment 204 117 83 196626 /midiout;#B frgb 255 255 255;#P window setfont "Sans Serif" 9.;#P window linecount 0;#P hidden newex 331 168 27 196617 t b i;#P hidden newex 331 140 27 196617 i;#P hidden newex 331 114 47 196617 onebang;#P hidden newex 368 88 44 196617 sel 100;#P hidden newex 331 88 27 196617 t b i;#P hidden newex 348 193 123 196617 s /cuesheet.1/step/next;#P hidden newex 331 64 84 196617 notein;#P hidden newex 331 219 88 196617 s /cuesheet.1/go;#P hidden newex 455 367 128 196617 variedit /pjlink.2/shutter;#P hidden newex 455 331 73 196617 pvar shutter2;#P hidden newex 454 271 128 196617 variedit /pjlink.1/shutter;#P hidden newex 454 235 73 196617 pvar shutter1;#P window setfont "Sans Serif" 18.;#P comment 214 41 68 196626 /midiin;#B frgb 255 255 255;#P window setfont "Sans Serif" 9.;#P hidden newex 270 555 94 196617 bgcolor 45 75 112;#P hidden newex 117 662 94 196617 prepend setsymbol;#P hidden newex 172 505 40 196617 t front;#P hidden inlet 173 482 15 0;#N thispatcher;#Q end;#P hidden newobj 172 526 61 196617 thispatcher;#P window setfont "Sans Serif" 14.;#P comment 11 43 87 196622 /in/channel;#B frgb 255 255 255;#P window setfont "Sans Serif" 9.;#P hidden newex -19 628 146 196617 variedit /midicc.1/in/channel;#P hidden newex -19 592 86 196617 pvar midichannel;#P window setfont "Sans Serif" 18.;#P number 105 39 43 18 1 16 35 3 0 0 0 255 255 255 222 222 222 0 0 0;#P objectname midichannel;#P window setfont "Sans Serif" 9.;#P hidden newex 281 637 82 196617 pvar saveconfig;#P window setfont "Sans Serif" 14.;#P comment 11 79 97 196622 /in/interface;#B frgb 255 255 255;#P window setfont "Sans Serif" 9.;#P hidden newex 28 466 48 196617 loadbang;#P hidden message 28 489 14 196617 1;#P window linecount 1;#P hidden newex 121 584 154 196617 variedit /midicc.1/in/interface;#P window setfont "Sans Serif" 14.;#P user ubumenu 103 78 180 196622 0 1 1 0;#X setrgb 255 255 255 45 75 112 95 115 162 255 255 255 141 141 141 112 112 112;#X add "Gestionnaire IAC Bus 1";#X add "RŽseau Session 1";#X add "to MaxMSP 1";#X add "to MaxMSP 2";#X prefix_set 0 0 <none> 0;#P objectname midiinterface;#P window setfont "Sans Serif" 9.;#P hidden newex 28 511 46 196617 midiinfo;#P hidden newex 121 560 51 196617 tosymbol;#P hidden message 281 658 37 196617 config;#P hidden newex 281 681 92 196617 s /events.2/name;#N vpatcher 20 74 529 636;#P window setfont "Sans Serif" 9.;#P window linecount 2;#P message 275 105 90 196617 \; $1/host 10.0.0.2;#P window linecount 1;#P message 437 473 37 196617 select;#P number 437 492 35 9 0 0 0 3 0 0 0 221 221 221 222 222 222 0 0 0;#P newex 385 453 62 196617 pvar port 2;#P message 385 434 37 196617 select;#P message 308 436 37 196617 select;#P message 231 436 37 196617 select;#P message 154 436 37 196617 select;#P window linecount 2;#P message 275 58 108 196617 \; $1/host 192.168.1.2;#P window linecount 1;#P newex 97 50 83 196617 r /pjlink.2/host;#B color 11;#P newex 50 503 83 196617 s /pjlink.2/host;#B color 11;#P newex 328 374 62 196617 prepend set;#P newex 251 374 62 196617 prepend set;#P newex 174 374 62 196617 prepend set;#P newex 97 374 62 196617 prepend set;#P newex 50 481 241 196617 sprintf %ld.%ld.%ld.%ld;#P newex 50 460 241 196617 bondo 4 1;#P newex 251 309 51 196617 zl ecils 1;#P newex 174 309 51 196617 zl ecils 1;#P newex 328 353 64 196617 fromsymbol;#P newex 328 332 40 196617 itoa;#P number 328 266 35 9 0 0 0 3 0 0 0 221 221 221 222 222 222 0 0 0;#P newex 328 245 27 196617 !-;#P number 206 265 35 9 0 0 0 3 0 0 0 221 221 221 222 222 222 0 0 0;#P newex 206 244 27 196617 !-;#P newex 97 309 51 196617 zl ecils 1;#P newex 251 353 64 196617 fromsymbol;#P newex 251 332 40 196617 itoa;#P number 345 215 35 9 0 0 0 3 0 0 0 221 221 221 222 222 222 0 0 0;#P newex 251 287 87 196617 zl slice;#P newex 174 353 64 196617 fromsymbol;#P newex 174 332 40 196617 itoa;#P number 223 215 35 9 0 0 0 3 0 0 0 221 221 221 222 222 222 0 0 0;#P newex 174 286 42 196617 zl slice;#P newex 97 353 64 196617 fromsymbol;#P newex 97 332 40 196617 itoa;#P newex 97 113 67 196617 t l l;#P newex 97 71 124 196617 t s b;#P number 129 215 35 9 0 0 0 3 0 0 0 221 221 221 222 222 222 0 0 0;#P newex 154 186 86 196617 unpack 0 0 0;#P message 211 140 70 196617 mode group 3;#P newex 97 285 42 196617 zl slice;#P newex 154 165 55 196617 zl group 3;#P newex 154 135 51 196617 zl sub 46;#P newex 97 92 40 196617 atoi;#P inlet 385 414 15 0;#P inlet 308 416 15 0;#P inlet 281 440 15 0;#P inlet 231 416 15 0;#P inlet 204 440 15 0;#P inlet 154 416 15 0;#P inlet 127 440 15 0;#P inlet 50 440 15 0;#P outlet 328 396 15 0;#P outlet 308 456 15 0;#P outlet 251 396 15 0;#P outlet 231 456 15 0;#P outlet 174 396 15 0;#P outlet 154 456 15 0;#P outlet 97 396 15 0;#P connect 45 0 43 0;#P connect 7 0 43 0;#P connect 43 0 44 0;#P connect 44 0 49 0;#P connect 50 0 22 0;#P connect 22 0 15 0;#P connect 15 0 23 0;#P connect 23 0 18 0;#P connect 18 0 34 0;#P connect 34 0 24 0;#P connect 24 0 25 0;#P connect 25 0 45 0;#P connect 45 0 0 0;#P connect 46 0 43 1;#P connect 8 0 43 1;#P connect 43 1 44 1;#P connect 20 0 21 0;#P connect 21 0 18 1;#P connect 23 1 16 0;#P connect 16 0 17 0;#P connect 19 0 17 0;#P connect 17 0 20 0;#P connect 9 0 52 0;#P connect 52 0 1 0;#P connect 18 1 26 0;#P connect 26 0 41 0;#P connect 41 0 28 0;#P connect 28 0 29 0;#P connect 29 0 46 0;#P connect 46 0 2 0;#P connect 47 0 43 2;#P connect 10 0 43 2;#P connect 43 2 44 2;#P connect 21 0 35 0;#P connect 35 0 36 0;#P connect 36 0 26 1;#P connect 22 1 19 0;#P connect 20 1 27 0;#P connect 27 0 35 1;#P connect 11 0 53 0;#P connect 53 0 3 0;#P connect 26 1 30 0;#P connect 30 0 42 0;#P connect 42 0 32 0;#P connect 32 0 33 0;#P connect 33 0 47 0;#P connect 47 0 4 0;#P connect 48 0 43 3;#P connect 12 0 43 3;#P connect 43 3 44 3;#P connect 13 0 54 0;#P connect 54 0 5 0;#P connect 27 0 37 0;#P connect 37 0 38 0;#P connect 38 0 30 1;#P connect 30 1 39 0;#P connect 39 0 40 0;#P connect 40 0 48 0;#P connect 48 0 6 0;#P connect 20 2 31 0;#P connect 31 0 37 1;#P connect 14 0 55 0;#P connect 55 0 56 0;#P connect 56 1 58 0;#P connect 58 0 57 0;#P pop;#P hidden newobj 14 439 240 196617 p;#P hidden newex 245 413 81 196617 pvar hostd[1] 2;#P hidden newex 168 413 81 196617 pvar hostc[1] 2;#P hidden newex 91 413 81 196617 pvar hostb[1] 2;#P hidden newex 14 413 81 196617 pvar hosta[1] 2;#N vpatcher 20 74 529 636;#P window setfont "Sans Serif" 9.;#P window linecount 2;#P message 275 105 90 196617 \; $1/host 10.0.0.2;#P window linecount 1;#P message 437 473 37 196617 select;#P number 437 492 35 9 0 0 0 3 0 0 0 221 221 221 222 222 222 0 0 0;#P newex 385 453 62 196617 pvar port 2;#P message 385 434 37 196617 select;#P message 308 436 37 196617 select;#P message 231 436 37 196617 select;#P message 154 436 37 196617 select;#P window linecount 2;#P message 275 58 108 196617 \; $1/host 192.168.1.2;#P window linecount 1;#P newex 97 50 83 196617 r /pjlink.1/host;#B color 11;#P newex 50 503 83 196617 s /pjlink.1/host;#B color 11;#P newex 328 374 62 196617 prepend set;#P newex 251 374 62 196617 prepend set;#P newex 174 374 62 196617 prepend set;#P newex 97 374 62 196617 prepend set;#P newex 50 481 241 196617 sprintf %ld.%ld.%ld.%ld;#P newex 50 460 241 196617 bondo 4 1;#P newex 251 309 51 196617 zl ecils 1;#P newex 174 309 51 196617 zl ecils 1;#P newex 328 353 64 196617 fromsymbol;#P newex 328 332 40 196617 itoa;#P number 328 266 35 9 0 0 0 3 0 0 0 221 221 221 222 222 222 0 0 0;#P newex 328 245 27 196617 !-;#P number 206 265 35 9 0 0 0 3 0 0 0 221 221 221 222 222 222 0 0 0;#P newex 206 244 27 196617 !-;#P newex 97 309 51 196617 zl ecils 1;#P newex 251 353 64 196617 fromsymbol;#P newex 251 332 40 196617 itoa;#P number 345 215 35 9 0 0 0 3 0 0 0 221 221 221 222 222 222 0 0 0;#P newex 251 287 87 196617 zl slice;#P newex 174 353 64 196617 fromsymbol;#P newex 174 332 40 196617 itoa;#P number 223 215 35 9 0 0 0 3 0 0 0 221 221 221 222 222 222 0 0 0;#P newex 174 286 42 196617 zl slice;#P newex 97 353 64 196617 fromsymbol;#P newex 97 332 40 196617 itoa;#P newex 97 113 67 196617 t l l;#P newex 97 71 124 196617 t s b;#P number 129 215 35 9 0 0 0 3 0 0 0 221 221 221 222 222 222 0 0 0;#P newex 154 186 86 196617 unpack 0 0 0;#P message 211 140 70 196617 mode group 3;#P newex 97 285 42 196617 zl slice;#P newex 154 165 55 196617 zl group 3;#P newex 154 135 51 196617 zl sub 46;#P newex 97 92 40 196617 atoi;#P inlet 385 414 15 0;#P inlet 308 416 15 0;#P inlet 281 440 15 0;#P inlet 231 416 15 0;#P inlet 204 440 15 0;#P inlet 154 416 15 0;#P inlet 127 440 15 0;#P inlet 50 440 15 0;#P outlet 328 396 15 0;#P outlet 308 456 15 0;#P outlet 251 396 15 0;#P outlet 231 456 15 0;#P outlet 174 396 15 0;#P outlet 154 456 15 0;#P outlet 97 396 15 0;#P connect 45 0 43 0;#P connect 7 0 43 0;#P connect 43 0 44 0;#P connect 44 0 49 0;#P connect 50 0 22 0;#P connect 22 0 15 0;#P connect 15 0 23 0;#P connect 23 0 18 0;#P connect 18 0 34 0;#P connect 34 0 24 0;#P connect 24 0 25 0;#P connect 25 0 45 0;#P connect 45 0 0 0;#P connect 46 0 43 1;#P connect 8 0 43 1;#P connect 43 1 44 1;#P connect 20 0 21 0;#P connect 21 0 18 1;#P connect 23 1 16 0;#P connect 19 0 17 0;#P connect 16 0 17 0;#P connect 17 0 20 0;#P connect 9 0 52 0;#P connect 52 0 1 0;#P connect 18 1 26 0;#P connect 26 0 41 0;#P connect 41 0 28 0;#P connect 28 0 29 0;#P connect 29 0 46 0;#P connect 46 0 2 0;#P connect 47 0 43 2;#P connect 10 0 43 2;#P connect 43 2 44 2;#P connect 21 0 35 0;#P connect 35 0 36 0;#P connect 36 0 26 1;#P connect 22 1 19 0;#P connect 20 1 27 0;#P connect 27 0 35 1;#P connect 11 0 53 0;#P connect 53 0 3 0;#P connect 26 1 30 0;#P connect 30 0 42 0;#P connect 42 0 32 0;#P connect 32 0 33 0;#P connect 33 0 47 0;#P connect 47 0 4 0;#P connect 48 0 43 3;#P connect 12 0 43 3;#P connect 43 3 44 3;#P connect 13 0 54 0;#P connect 54 0 5 0;#P connect 27 0 37 0;#P connect 37 0 38 0;#P connect 38 0 30 1;#P connect 30 1 39 0;#P connect 39 0 40 0;#P connect 40 0 48 0;#P connect 48 0 6 0;#P connect 20 2 31 0;#P connect 31 0 37 1;#P connect 14 0 55 0;#P connect 55 0 56 0;#P connect 56 1 58 0;#P connect 58 0 57 0;#P pop;#P hidden newobj 14 378 240 196617 p;#P hidden newex 245 352 67 196617 pvar hostd 2;#P hidden newex 168 352 67 196617 pvar hostc 2;#P hidden newex 91 352 67 196617 pvar hostb 2;#P hidden newex 14 352 67 196617 pvar hosta 2;#P window setfont Arial 18.;#P comment 92 237 133 -1205862382 SAVE CONFIG;#B frgb 255 255 255;#P objectname audioofflabel[1];#P window setfont "Sans Serif" 9.;#P hidden newex 28 536 103 196617 pvar midiinterface 2;#P user ubutton 64 233 178 29 0 2;#P objectname saveconfig;#P user panel 65 233 178 29;#X brgb 251 76 0;#X frgb 255 255 255;#X border 2;#X rounded 14;#X shadow 0;#X done;#P user panel 7 37 280 72;#X brgb 33 44 67;#X frgb 251 76 0;#X border 2;#X rounded 14;#X shadow 0;#X done;#P window setfont "Sans Serif" 18.;#P comment 64 4 173 196626 initialisation values;#B frgb 255 255 255;#P user panel 7 112 280 72;#X brgb 33 44 67;#X frgb 251 76 0;#X border 2;#X rounded 14;#X shadow 0;#X done;#P hidden fasten 29 0 28 0 -14 655 -29 655 -29 586 -14 586;#P hidden connect 28 0 29 0;#P hidden connect 11 0 7 0;#P hidden connect 7 0 11 0;#P hidden connect 16 0 12 0;#P hidden connect 12 0 16 0;#P hidden connect 24 0 23 0;#P hidden connect 34 0 5 0;#P hidden connect 20 0 5 0;#P hidden connect 8 0 11 1;#P hidden connect 13 0 16 1;#P connect 23 0 20 1;#P hidden connect 7 1 11 2;#P hidden connect 12 1 16 2;#P hidden connect 11 2 8 0;#P hidden connect 11 1 8 0;#P hidden connect 16 2 13 0;#P hidden connect 16 1 13 0;#P hidden connect 9 0 11 3;#P hidden connect 14 0 16 3;#P hidden connect 22 1 34 0;#P hidden connect 5 1 19 0;#P hidden connect 19 0 22 0;#P hidden connect 8 1 11 4;#P hidden connect 13 1 16 4;#P hidden connect 11 4 9 0;#P hidden connect 11 3 9 0;#P hidden connect 16 4 14 0;#P hidden connect 16 3 14 0;#P hidden connect 32 0 33 0;#P hidden connect 33 0 31 0;#P hidden connect 10 0 11 5;#P hidden connect 15 0 16 5;#P hidden connect 9 1 11 6;#P hidden connect 14 1 16 6;#P hidden connect 10 1 11 7;#P hidden connect 15 1 16 7;#P hidden connect 11 6 10 0;#P hidden connect 11 5 10 0;#P hidden connect 16 6 15 0;#P hidden connect 16 5 15 0;#P hidden connect 26 0 18 0;#P hidden connect 18 0 17 0;#P hidden connect 56 0 42 0;#P hidden connect 42 0 44 0;#P hidden connect 44 0 46 0;#P hidden connect 46 0 47 0;#P hidden connect 47 0 48 0;#P hidden connect 48 0 41 0;#P hidden connect 44 1 47 1;#P hidden connect 48 1 43 0;#P hidden connect 42 1 45 0;#P hidden connect 45 0 46 1;#P hidden connect 65 0 64 0;#P hidden connect 64 0 65 0;#P hidden fasten 38 0 37 0 459 298 444 298 444 229 459 229;#P hidden connect 37 0 38 0;#P hidden fasten 40 0 39 0 460 394 445 394 445 325 460 325;#P hidden connect 39 0 40 0;#P hidden connect 52 1 57 0;#P hidden connect 57 0 58 0;#P connect 55 0 54 0;#P hidden connect 54 0 53 0;#P hidden connect 53 0 52 0;#P hidden connect 59 0 52 0;#P hidden connect 58 1 59 0;#P pop;#P hidden newobj 806 389 45 196617 p config;#P hidden newex 1290 173 71 196617 pvar m8alpha;#P hidden connect 129 0 98 0;#P hidden connect 129 0 97 0;#P hidden connect 129 0 99 0;#P hidden connect 129 0 100 0;#P hidden connect 150 0 152 0;#P hidden fasten 153 0 154 0 25 891 8 891 8 803 25 803;#P hidden connect 154 0 153 0;#P hidden connect 155 0 153 0;#P hidden connect 153 0 151 0;#P hidden connect 156 0 151 0;#P hidden connect 151 0 150 0;#P hidden fasten 161 0 162 0 29 699 12 699 12 607 29 607;#P hidden connect 162 0 161 0;#P hidden connect 163 0 161 0;#P hidden connect 161 0 159 0;#P hidden connect 164 0 159 0;#P hidden connect 159 0 158 0;#P hidden connect 158 0 160 0;#P hidden connect 151 1 150 1;#P hidden connect 159 1 158 1;#P hidden connect 154 0 156 0;#P hidden connect 162 0 164 0;#P hidden connect 67 2 78 0;#P hidden connect 69 0 200 0;#P hidden connect 200 0 69 0;#P hidden connect 201 0 68 0;#P hidden connect 128 0 122 0;#P hidden connect 126 0 124 0;#P hidden connect 127 0 125 0;#P hidden connect 196 0 198 0;#P hidden connect 198 0 199 0;#P hidden connect 199 0 197 0;#P hidden connect 68 0 201 0;#P hidden connect 173 0 172 0;#P hidden connect 175 0 169 0;#P hidden connect 172 0 169 0;#P hidden connect 78 0 67 0;#P hidden fasten 65 0 64 0 557 426 546 426 546 376 557 376;#P hidden fasten 64 0 65 0 557 402 557 402;#P hidden fasten 168 1 172 1 709 802 995 802 995 689 590 689;#P hidden connect 175 0 168 0;#P hidden connect 172 1 168 0;#P hidden connect 190 1 188 0;#P hidden connect 190 1 189 0;#P hidden connect 189 0 191 0;#P hidden connect 135 0 130 0;#P hidden connect 134 0 133 0;#P hidden connect 130 0 133 0;#P hidden connect 133 0 131 0;#P hidden connect 136 0 131 0;#P hidden connect 131 0 132 0;#P hidden connect 132 0 102 0;#P hidden connect 101 0 103 0;#P hidden connect 103 0 104 0;#P hidden connect 135 1 136 0;#P hidden fasten 168 0 172 2 608 776 481 776 491 714 676 714;#P hidden connect 33 0 37 0;#P hidden connect 37 0 34 0;#P hidden connect 36 0 34 0;#P hidden connect 135 3 137 0;#P hidden connect 137 0 134 0;#P hidden connect 37 1 35 0;#P hidden connect 35 0 38 0;#P hidden connect 38 0 36 0;#P hidden connect 175 0 170 0;#P hidden connect 172 3 170 0;#P hidden connect 192 0 193 0;#P hidden connect 27 1 35 1;#P hidden fasten 170 0 172 3 734 787 973 787 973 703 762 703;#P hidden connect 54 1 56 0;#P hidden connect 56 0 58 0;#P hidden connect 58 0 55 0;#P hidden connect 55 0 57 0;#P hidden connect 57 0 54 0;#P hidden connect 63 0 59 0;#P hidden connect 2 0 1 0;#P hidden connect 39 0 40 0;#P hidden connect 194 0 195 0;#P hidden fasten 171 0 172 4 884 773 964 773 964 716 848 716;#P hidden connect 175 0 171 0;#P hidden connect 172 4 171 0;#P hidden connect 12 0 42 0;#P hidden connect 59 1 61 0;#P hidden connect 61 0 62 0;#P hidden connect 62 0 60 0;#P hidden connect 60 0 63 0;#P hidden connect 13 0 43 0;#P hidden connect 7 0 6 0;#P hidden connect 9 0 8 0;#P hidden connect 11 2 10 0;#P hidden connect 21 0 22 0;#P hidden connect 42 0 12 0;#P hidden fasten 15 0 12 0 1045 375 983 375 983 174 992 174;#P hidden connect 30 0 31 0;#P hidden connect 12 1 16 0;#P hidden connect 16 0 14 0;#P hidden connect 14 0 18 0;#P hidden connect 18 0 4 0;#P hidden connect 4 0 19 0;#P hidden connect 19 0 15 0;#P hidden connect 183 0 182 0;#P hidden connect 182 0 181 0;#P hidden fasten 187 0 181 0 1152 752 1186 752 1186 682 1051 682;#P hidden connect 43 0 13 0;#P hidden fasten 20 0 13 0 1087 374 1196 374 1196 205 1053 205;#P hidden connect 27 1 12 2;#P hidden connect 6 0 7 0;#P hidden connect 8 0 9 0;#P hidden connect 41 0 11 0;#P hidden connect 10 0 11 0;#P hidden connect 22 0 21 0;#P hidden connect 49 0 46 0;#P hidden connect 50 0 48 0;#P hidden connect 17 0 14 1;#P hidden connect 31 0 27 0;#P hidden connect 23 0 24 0;#P hidden connect 3 0 24 0;#P hidden connect 19 1 20 0;#P hidden connect 13 1 17 0;#P hidden connect 27 1 21 2;#P hidden connect 27 1 11 2;#P hidden connect 27 1 13 2;#P hidden connect 27 1 7 2;#P hidden connect 181 1 186 0;#P hidden connect 186 0 184 0;#P hidden connect 184 0 178 0;#P hidden connect 178 0 167 0;#P hidden connect 27 1 9 2;#P hidden connect 27 1 26 0;#P hidden connect 26 0 25 0;#P hidden connect 44 0 5 0;#P hidden connect 0 0 5 0;#P hidden connect 186 1 187 0;#P hidden connect 27 1 24 2;#P hidden connect 185 3 178 1;#P lcolor 1;#P hidden connect 168 1 178 1;#P hidden connect 11 0 41 0;#P hidden connect 46 1 51 0;#P hidden connect 48 1 52 0;#P hidden connect 52 0 166 0;#P hidden connect 184 1 176 0;#P hidden connect 176 0 177 0;#P hidden connect 185 3 176 1;#P lcolor 1;#P hidden connect 168 1 176 1;#P hidden connect 53 0 45 0;#P hidden connect 166 0 47 0;#P hidden connect 24 0 3 0;#P hidden connect 27 1 5 2;#P hidden connect 51 0 53 0;#P hidden connect 5 0 44 0;#P hidden connect 184 2 180 0;#P hidden connect 180 0 179 0;#P hidden connect 24 2 23 0;#P hidden connect 172 2 185 0;#P lcolor 2;#P hidden connect 185 3 180 1;#P lcolor 1;#P hidden connect 168 1 180 1;#P hidden connect 5 2 0 0;#P hidden connect 45 0 49 0;#P hidden connect 47 0 50 0;#P hidden connect 32 0 29 0;#P hidden connect 29 0 28 0;#P hidden connect 29 1 28 1;#P hidden connect 27 1 28 3;#P pop;