max v2;#N vpatcher 0 44 517 356;#P origin 6 -27;#P window setfont "Sans Serif" 9.;#P hidden newex 44 390 50 196617 deferlow;#P hidden newex 44 364 21 196617 t 1;#B color 12;#P hidden newex 44 415 129 196617 s /cuesheet.1/autofill/sw;#B color 12;#P hidden newex 44 341 127 196617 r /events.1/menu/update;#B color 12;#P hidden newex 428 427 98 196617 s /events.1/create;#P hidden newex 428 402 63 196617 pvar create;#P hidden newex 325 425 90 196617 s /events.1/save;#P hidden newex 325 400 55 196617 pvar save;#P hidden newex 211 400 67 196617 pvar gopanel;#P hidden newex 200 354 86 196617 pvar gobuttonn 2;#N vpatcher 72 655 527 851;#P window setfont "Sans Serif" 9.;#P window linecount 1;#P newex 31 41 44 196617 del 250;#P window linecount 0;#P message 330 97 80 196617 frgb 22 222 22;#P message 236 97 81 196617 brgb 222 22 22;#P inlet 236 32 15 0;#P outlet 16 155 15 0;#P message 110 66 86 196617 frgb 96 190 255;#P message 16 66 81 196617 brgb 0 146 204;#P connect 6 0 0 0;#P connect 1 0 2 0;#P connect 0 0 2 0;#P connect 5 0 2 0;#P connect 4 0 2 0;#P connect 3 0 6 0;#P connect 6 0 1 0;#P connect 3 0 4 0;#P connect 3 0 5 0;#P pop;#P hidden newobj 211 378 70 196617 p color;#P window linecount 2;#P hidden message 198 426 103 196617 \; /cuesheet.1/go bang;#P window linecount 1;#P hidden message 182 747 33 196617 set 0;#P hidden newex 162 724 30 196617 t s b;#P hidden newex 298 746 110 196617 route set append clear;#P hidden newex 162 769 180 196617 sel edit rename delete;#P hidden newex 81 653 48 196617 loadbang;#P hidden message 81 676 76 196617 enableitem 0 0;#P hidden newex 81 701 91 196617 pvar eventmenu 2;#P hidden newex 274 802 36 196617 zl reg;#P hidden newex 274 825 96 196617 s /events.1/delete;#P hidden newex 162 870 36 196617 zl reg;#P hidden newex 218 868 102 196617 s /events.1/rename;#P hidden newex 218 847 36 196617 zl reg;#P hidden message 65 445 33 196617 clear;#P window setfont "Sans Serif" 18.;#P hidden comment 440 652 100 196626 /cuesheet;#B frgb 255 255 255;#P window setfont "Sans Serif" 9.;#P hidden newex 131 508 93 196617 r /cuesheet.1/init;#B color 12;#N vpatcher 248 616 1558 901;#P outlet 517 234 15 0;#P inlet 370 24 15 0;#P window setfont "Sans Serif" 9.;#P newex 1002 45 56 196617 route text;#P newex 693 46 56 196617 route text;#P newex 1002 68 273 196617 s /cuesheet.1/nextcomment/from;#B color 12;#P newex 693 69 287 196617 s /cuesheet.1/onstagecomment/from;#B color 12;#P newex 678 130 259 196617 r /cuesheet.1/onstagecomment;#B color 12;#P newex 987 130 245 196617 r /cuesheet.1/nextcomment;#B color 12;#P newex 491 198 62 196617 prepend set;#B color 12;#P newex 491 177 104 196617 r /cuesheet.1/next;#B color 12;#P newex 186 109 34 196617 defer;#B color 12;#P message 127 149 249 196617 brgb 222 22 22 \, rgb3 222 22 22 \, frgb 255 255 255;#P message 186 130 249 196617 brgb 155 55 55 \, rgb3 105 35 35 \, frgb 255 255 255;#P newex 186 67 101 196617 sprintf set %s/done;#B color 12;#P newex 186 88 14 196617 r;#B color 12;#P newex 469 130 143 196617 vari /cuesheet.1/step/next;#B color 12;#P newex 9 109 78 196617 prepend append;#P newex 9 47 189 196617 t l clear b l;#P newex 9 23 116 196617 r /cuesheet.1/current;#B color 12;#P newex 480 153 163 196617 r /cuesheet.1/tosequence-menu;#B color 12;#P newex 447 70 222 196617 s /cuesheet.1/fromsequence-menu;#B color 12;#P inlet 447 24 15 0;#P inlet 1002 24 15 0;#P inlet 469 108 15 0;#P inlet 693 24 15 0;#P outlet 469 234 15 0;#P outlet 987 234 15 0;#P outlet 9 234 15 0;#P outlet 678 234 15 0;#P connect 10 0 11 0;#P connect 11 0 12 0;#P fasten 12 0 1 0 14 180 14 180;#P fasten 11 1 1 0 73 149 14 149;#P fasten 17 0 1 0 132 203 14 203;#P fasten 16 0 1 0 191 213 14 213;#P connect 11 2 17 0;#P connect 11 3 15 0;#P connect 15 0 14 0;#P connect 14 0 18 0;#P fasten 27 0 16 0 375 127 191 127;#P connect 18 0 16 0;#P connect 7 0 8 0;#P connect 5 0 13 0;#P connect 13 0 3 0;#P connect 20 0 3 0;#P connect 9 0 3 0;#P connect 19 0 20 0;#P connect 9 0 28 0;#P connect 13 0 28 0;#P connect 19 0 28 0;#P connect 22 0 0 0;#P connect 4 0 25 0;#P connect 25 0 23 0;#P connect 21 0 2 0;#P connect 6 0 26 0;#P connect 26 0 24 0;#P pop;#P hidden newobj 45 565 355 196617 p;#P hidden newex 425 589 103 196617 pvar nextcomment 2;#B color 14;#P hidden newex 275 589 108 196617 pvar onstagecomment;#B color 14;#P hidden newex 45 589 68 196617 pvar onstage;#B color 14;#P hidden newex 149 593 111 196617 pvar sequence-menu 2;#B color 14;#P hidden newex 162 894 86 196617 s /events.1/edit;#P window setfont "Sans Serif" 18.;#P number 453 151 40 18 0 0 160 3 0 0 0 255 255 255 222 222 222 0 0 0;#P objectname currentsteper;#P number 451 73 41 18 0 0 32 3 0 0 0 255 255 255 222 222 222 0 0 0;#P objectname currentstep;#P window setfont "Sans Serif" 9.;#P window linecount 2;#P hidden message 193 131 111 196617 \; /oscreceive.1/print 1;#P hidden toggle 713 196 15 0;#P hidden button 657 188 15 0;#P window linecount 1;#P hidden newex 628 162 99 196617 pvar enginebutton 4;#B color 14;#P hidden newex 714 214 32 196617 sel 0;#P hidden message 628 205 29 196617 stop;#P hidden button 629 243 15 0;#P hidden newex 629 222 50 196617 del 1000;#P hidden button 628 186 15 0;#P hidden message 105 78 33 196617 clear;#P window setfont Helvetica 18.;#P user ubumenu 393 42 99 1376274 0 1 1 0;#X setrgb 0 0 0 255 255 255 234 234 234 4 4 4 141 141 141 112 112 112;#X add <choose>;#X add edit;#X add rename;#X add delete;#X prefix_set 0 0 <none> 0;#P objectname eventmenu;#P window setfont "Sans Serif" 10.;#P comment 186 19 36 196618 V 0.2;#B frgb 255 255 255;#P window setfont "Sans Serif" 9.;#P hidden newex 629 359 72 196617 pvar redpanel;#B color 14;#P window setfont "Sans Serif" 14.;#N vpatcher 744 262 949 447;#P window setfont "Sans Serif" 9.;#P message 50 96 75 196617 brgb 21 34 52;#P message 67 75 81 196617 brgb 180 30 30;#P window setfont "Sans Serif" 10.;#P newex 50 50 44 196618 sel 0 1;#P inlet 50 30 15 0;#P outlet 50 116 15 0;#P connect 1 0 2 0;#P connect 2 0 4 0;#P connect 4 0 0 0;#P connect 3 0 0 0;#P connect 2 1 3 0;#P pop;#P hidden newobj 629 329 85 196622 p redpanel;#B color 6;#P window setfont "Sans Serif" 9.;#P window linecount 2;#P hidden message 629 263 100 196617 \; /engine/editor open;#P window setfont Helvetica 14.;#P window linecount 1;#N vpatcher 528 44 1044 543;#P origin 175 16;#P window setfont "Sans Serif" 14.;#P window linecount 0;#N vpatcher 171 679 473 937;#P window setfont "Sans Serif" 9.;#P newex 157 115 58 196617 pak i 2000;#P newex 17 116 58 196617 pak i 2000;#P newex 157 150 68 196617 line;#P newex 17 150 68 196617 line;#P newex 205 83 78 196617 r /dmx.2/time;#B color 12;#P newex 65 82 78 196617 r /dmx.1/time;#B color 12;#P newex 157 182 84 196617 prepend /circ/2;#P newex 157 56 38 196617 * 255;#P newex 157 29 72 196617 r /dmx.2/val;#B color 12;#P newex 17 182 84 196617 prepend /circ/1;#P newex 17 56 38 196617 * 255;#P newex 17 215 115 196617 udpsend localhost 7000;#P newex 17 29 72 196617 r /dmx.1/val;#B color 12;#P connect 0 0 2 0;#P connect 2 0 11 0;#P connect 11 0 9 0;#P connect 9 0 3 0;#P connect 3 0 1 0;#P fasten 6 0 1 0 162 207 22 207;#P connect 7 0 11 1;#P connect 4 0 5 0;#P connect 5 0 12 0;#P connect 12 0 10 0;#P connect 10 0 6 0;#P connect 8 0 12 1;#P pop;#P newobj 387 312 52 196622 p dmx;#B color 6;#P window setfont "Sans Serif" 9.;#N coll /events.2/state;#P newobj 353 264 103 196617 coll /events.2/state;#N coll /events.1/state;#P newobj 354 242 103 196617 coll /events.1/state;#P window setfont "Sans Serif" 10.;#P newex 335 41 51 196618 loadbang;#P newex 335 68 52 196618 deferlow;#P newex 335 120 104 196618 s /tapemovie/build;#P newex 335 94 52 196618 deferlow;#P window setfont "Sans Serif" 9.;#P newex 209 72 89 196617 pvar ininitmenu 2;#B color 14;#P window setfont "Sans Serif" 14.;#P user ubumenu 186 21 110 196622 0 0 1 0;#X setrgb 0 0 0 230 230 230 255 255 255 0 146 207 141 141 141 0 146 207;#X add init;#X prefix_set 0 0 <none> 0;#P objectname ininitmenu;#P window setfont "Sans Serif" 12.;#P user ubumenu 186 45 110 196620 0 0 1 0;#X setrgb 0 0 0 230 230 230 255 255 255 0 146 207 141 141 141 0 146 207;#X add Configuration;#X add edit-config;#X add write-config;#X add edit-shortcuts;#X add write-shortcuts;#X prefix_set 0 0 <none> 0;#P objectname configmenu;#P window setfont "Sans Serif" 10.;#P newex 87 24 51 196618 loadbang;#P window setfont "Sans Serif" 9.;#P message 87 51 76 196617 enableitem 0 0;#P window setfont "Sans Serif" 10.;#P newex 16 39 66 196618 prepend set;#P newex 100 118 31 196618 t 0 l;#P window setfont "Sans Serif" 9.;#P newex 88 72 93 196617 pvar configmenu 2;#B color 14;#P window setfont "Sans Serif" 14.;#N vpatcher 576 382 1116 641;#P window setfont "Sans Serif" 9.;#P window linecount 0;#P newex 16 204 381 196617 makeparam-m8-master crossfader_slider /modul8/crossfader /modul8 f 1 0 1 1;#P newex 318 141 124 196617 r /oscreceive.1/activity;#B color 12;#P newex 318 172 78 196617 s /frommodul8;#B color 12;#P comment 262 120 259 196617 switch off osc send to modul8 to avoid resetting layers;#P newex 318 78 31 196617 == 0;#P newex 318 101 87 196617 s /oscsend.1/sw;#P inlet 318 37 15 0;#P window linecount 2;#P message 18 162 270 196617 \; /oscsend.1 /md8key/ctrl_master_layerSetGroupA/0 \$1;#P window linecount 1;#P newex 18 141 27 196617 - 1;#P newex 18 114 89 196617 r /modul8/set/A;#B color 12;#P window linecount 2;#P message 17 81 269 196617 \; /oscsend.1 /md8key/ctrl_master_layerSetGroupB/0 \$1;#P window linecount 1;#P newex 17 58 27 196617 - 1;#P newex 17 33 88 196617 r /modul8/set/B;#B color 12;#P connect 0 0 1 0;#P connect 1 0 2 0;#P connect 3 0 4 0;#P connect 4 0 5 0;#P connect 6 0 8 0;#P connect 8 0 7 0;#P connect 11 0 10 0;#P pop;#P newobj 168 240 73 196622 p modul8;#B color 6;#P window setfont "Sans Serif" 9.;#P window linecount 2;#P newex 121 152 222 196617 sel init edit-config write-config edit-shortcuts write-shortcuts;#P window setfont "Sans Serif" 18.;#P window linecount 1;#P comment 214 291 154 196626 project manager;#B frgb 0 124 206;#P window setfont "Sans Serif" 9.;#P window linecount 2;#P message 79 342 214 196617 \; /tapemovie/chooseprojectwindow/open bang;#P outlet 249 240 15 0;#P button 36 406 15 0;#P window linecount 1;#P message 36 386 37 196617 config;#P newex 147 105 163 196617 editorwindow /engine /tapemovie;#B color 6;#N thispatcher;#Q end;#P newobj 147 125 61 196617 thispatcher;#P toggle 249 216 15 0;#P button 79 157 15 0;#P toggle 352 191 15 0;#P newex 36 118 48 196617 loadbang;#N vpatcher 741 405 1698 683;#P button 490 30 15 0;#P window setfont "Sans Serif" 9.;#P window linecount 1;#P newex 43 58 34 196617 b 2;#P message 68 124 22 196617 set;#P inlet 796 34 15 0;#P outlet 796 218 15 0;#P outlet 301 217 15 0;#P outlet 181 216 15 0;#P newex 796 150 123 196617 var /tapemovie/verbose;#P newex 301 150 120 196617 r /tapemovie/init/state;#P newex 181 150 110 196617 r /tapemovie/building;#P outlet 43 215 15 0;#P newex 43 185 62 196617 prepend set;#P newex 43 150 132 196617 r /tapemovie/projectname;#P inlet 598 34 15 0;#P inlet 460 34 15 0;#P inlet 341 34 15 0;#P inlet 251 34 15 0;#P inlet 142 34 15 0;#P inlet 43 34 15 0;#P newex 638 90 149 196617 s /tapemovie/shortcuts/reset;#P newex 598 63 50 196617 t write b;#P newex 460 63 37 196617 t open;#P newex 460 90 170 196617 s /tapemovie/tm_shortcuts/editor;#P newex 341 90 88 196617 s tm_init2/write;#P newex 251 90 83 196617 s tm_init2/open;#P newex 142 90 97 196617 s /tapemovie/build;#P window linecount 0;#P newex 43 90 95 196617 s /tapemovie/path;#P connect 8 0 25 0;#P connect 25 0 0 0;#P connect 14 0 15 0;#P connect 24 0 16 0;#P connect 15 0 16 0;#P connect 25 1 24 0;#P connect 9 0 1 0;#P connect 17 0 20 0;#P connect 10 0 2 0;#P connect 18 0 21 0;#P connect 11 0 3 0;#P connect 12 0 5 0;#P connect 26 0 5 0;#P connect 5 0 4 0;#P connect 6 0 4 0;#P connect 13 0 6 0;#P connect 6 1 7 0;#P connect 23 0 19 0;#P connect 19 0 22 0;#P pop;#P newobj 79 189 266 196617 p tapemovie.control;#P comment 348 172 46 196617 verbose;#P user textedit 79 315 350 338 32897 3 9 /sources/tm-project;#P newex 285 217 85 196617 tapemovie.model;#B color 14;#P window setfont "Sans Serif" 18.;#P comment 225 379 144 196626 config manager;#B frgb 0 124 206;#P user panel 68 294 300 80;#X brgb 255 255 255;#X frgb 0 0 0;#X border 1;#X rounded 0;#X shadow 0;#X done;#P bpatcher 36 427 330 22 0 0 tm_configeditormenu.mxt 1;#P user panel 33 380 335 78;#X brgb 255 255 255;#X frgb 0 0 0;#X border 1;#X rounded 0;#X shadow 0;#X done;#P fasten 22 0 23 0 105 153 12 153 12 33 21 33;#P lcolor 2;#P fasten 8 0 14 0 41 141 41 141;#P connect 14 0 15 0;#P connect 15 0 1 0;#P connect 8 0 10 0;#P connect 10 0 7 0;#P connect 7 0 5 0;#P connect 25 0 24 0;#P connect 23 0 21 0;#P connect 24 0 21 0;#P fasten 21 1 22 0 176 94 105 94;#P fasten 28 1 22 0 293 94 105 94;#P connect 22 1 19 0;#P connect 19 0 7 1;#P fasten 12 0 13 0 152 145 143 145 143 102 152 102;#P connect 13 0 12 0;#P connect 19 1 7 2;#P fasten 11 0 20 0 254 234 173 234;#P connect 19 2 7 3;#P connect 19 3 7 4;#P fasten 7 1 11 0 169 212 254 212;#P connect 7 2 11 0;#P connect 11 0 16 0;#P connect 19 4 7 5;#P connect 9 0 7 6;#P connect 32 0 31 0;#P connect 31 0 29 0;#P connect 29 0 30 0;#P connect 7 3 9 0;#P pop;#P hidden newobj 629 299 84 1376270 p engine;#B color 6;#P window setfont "Sans Serif" 14.;#P user textedit 7 180 494 231 32897 3 14;#P objectname onstagecomment;#P window setfont "Sans Serif" 18.;#P user ubumenu 7 151 446 196626 1 0 0 2;#X setrgb 255 255 255 155 55 55 255 255 255 4 4 4 105 35 35 16 207 108;#X prefix_set 0 0 <none> 0;#P objectname onstage;#P user ubumenu 6 73 446 196626 0 1 1 2;#X setrgb 0 0 0 55 155 55 234 234 234 4 4 4 141 141 141 112 112 112;#X add 00-mise;#X add 05-LIGHT;#X add 10-camera;#X add 20-camera+nuages;#X add 30-PAUSE;#X add 40-fadeOut;#X add end;#X prefix_set 0 0 <none> 0;#P objectname sequence-menu;#P window setfont "Sans Serif" 14.;#P user textedit 7 100 494 150 32897 3 14 "Mise Camera + calques Modul8";#P objectname nextcomment;#P window setfont "Sans Serif" 10.;#P comment 19 37 127 196618 Renaud Rubiano - 2012;#B frgb 255 255 255;#P window setfont Arial 18.;#P comment 390 263 58 -1205862382 SAVE;#B frgb 255 255 255;#P objectname audioofflabel[1];#P user ubutton 338 260 157 26 0 2;#P objectname save;#P user panel 339 261 155 24;#X brgb 241 134 39;#X frgb 222 222 222;#X border 1;#X rounded 25;#X shadow 0;#X done;#P objectname audiopanel[1];#P window setfont Arial 14.;#P comment 300 28 65 -1205862386 CONFIG;#B frgb 255 255 255;#P objectname audioofflabel[2];#P user panel 287 27 87 21;#X brgb 0 146 207;#X frgb 222 222 222;#X border 1;#X rounded 25;#X shadow 0;#X done;#P objectname audiopanel[2];#P window setfont "Sans Serif" 10.;#P comment 19 48 211 196618 tapemovie based software - didascalie.net;#B frgb 0 147 203;#P user ubutton 286 27 92 23 0 2;#P objectname configbutton;#P window setfont "Sans Serif" 24.;#P comment 19 4 137 196632 m8-control;#B frgb 255 255 255;#P user ubutton 19 4 136 34 0 2;#P objectname enginebutton;#P window setfont Arial 18.;#P comment 378 235 83 -1205862382 CREATE;#B frgb 255 255 255;#P objectname audioofflabel[4];#P user ubutton 338 233 157 25 0 2;#P objectname create;#P user panel 339 234 155 23;#X brgb 35 140 10;#X frgb 222 222 222;#X border 1;#X rounded 25;#X shadow 0;#X done;#P objectname audiopanel[4];#P window setfont Verdana 36.;#P comment 124 235 99 -1994391516 PLAY;#B frgb 255 255 255;#P user ubutton 11 235 317 47 0 2;#P objectname gobuttonn;#P user panel 10 233 321 50;#X brgb 0 146 204;#X frgb 96 190 255;#X border 1;#X rounded 25;#X shadow 0;#X done;#P objectname gopanel;#P user panel 6 5 380 64;#X brgb 21 34 52;#X frgb 255 255 255;#X border 2;#X rounded 14;#X shadow 0;#X done;#P objectname redpanel;#P window setfont "Sans Serif" 9.;#P hidden newex 552 430 94 196617 bgcolor 45 75 112;#P window setfont "Sans Serif" 10.;#P hidden newex 552 401 159 196618 editorwindow /app /tapemovie;#B color 6;#N thispatcher;#Q end;#P hidden newobj 552 377 66 196618 thispatcher;#P window setfont "Sans Serif" 9.;#P hidden newex 902 340 27 196617 - 1;#P hidden newex 902 289 62 196617 prepend set;#P hidden newex 902 257 27 196617 + 1;#P hidden newex 902 315 97 196617 pvar currentsteper;#P hidden newex 764 225 148 196617 var /cuesheet.1/step/current;#P hidden newex 763 83 62 196617 prepend set;#P hidden newex 763 130 27 196617 - 1;#P hidden newex 763 61 27 196617 + 1;#P hidden newex 763 109 87 196617 pvar currentstep;#P hidden newex 763 154 134 196617 var /cuesheet.1/step/next;#P hidden newex 716 502 79 196617 sprintf %s/init;#P hidden newex 674 452 52 196617 b 2;#P hidden newex 716 521 68 196617 prepend send;#P hidden newex 716 478 36 196617 zl reg;#P hidden newex 674 549 47 196617 forward;#P hidden newex 674 430 63 196617 pvar m8init;#P hidden newex 806 366 89 196617 pvar configbutton;#N vpatcher 527 177 838 461;#P origin -157 -80;#P window setfont "Sans Serif" 18.;#P window linecount 0;#P hidden newex 374 464 205 196626 var /events.1/interval;#P hidden newex 374 422 120 196626 pvar interval;#P window linecount 1;#P comment 189 194 97 196626 /events.1;#B frgb 255 255 255;#P window setfont "Sans Serif" 14.;#P comment 13 198 68 196622 /interval;#B frgb 255 255 255;#P window setfont "Sans Serif" 18.;#P number 107 194 50 18 0 500 35 3 0 0 0 255 255 255 222 222 222 0 0 0;#P objectname interval;#P user panel 7 188 284 41;#X brgb 33 44 67;#X frgb 251 76 0;#X border 2;#X rounded 14;#X shadow 0;#X done;#P window setfont "Sans Serif" 9.;#P window linecount 0;#P hidden newex 521 191 94 196617 prepend setsymbol;#P hidden newex 458 160 160 196617 variedit /midicc.1/out/interface;#P hidden newex 458 136 51 196617 tosymbol;#P hidden newex 331 36 123 196617 r /midicc.1/in/interface;#P hidden newex 479 37 48 196617 loadbang;#P hidden message 479 58 14 196617 1;#P window linecount 1;#P hidden newex 479 80 46 196617 midiinfo;#P hidden newex 479 106 117 196617 pvar midiinterface[1] 2;#P window setfont "Sans Serif" 14.;#P comment 11 131 109 196622 /out/interface;#B frgb 255 255 255;#P user ubumenu 103 152 180 196622 0 1 1 0;#X setrgb 255 255 255 45 75 112 95 115 162 255 255 255 141 141 141 112 112 112;#X add "AU DLS Synth 1";#X add "Gestionnaire IAC Bus 1";#X add "RŽseau Session 1";#X add "to grab2syphon 0.2 1";#X add "to grab2syphon 0.2 2";#X add "from MaxMSP 1";#X add "from MaxMSP 2";#X prefix_set 0 0 <none> 0;#P objectname midiinterface[1];#P window setfont "Sans Serif" 18.;#P comment 204 117 83 196626 /midiout;#B frgb 255 255 255;#P window setfont "Sans Serif" 9.;#P window linecount 0;#P hidden newex 331 168 27 196617 t b i;#P hidden newex 331 140 27 196617 i;#P hidden newex 331 114 47 196617 onebang;#P hidden newex 368 88 44 196617 sel 100;#P hidden newex 331 88 27 196617 t b i;#P hidden newex 348 193 123 196617 s /cuesheet.1/step/next;#P hidden newex 331 64 84 196617 notein;#P hidden newex 331 219 88 196617 s /cuesheet.1/go;#P hidden newex 455 367 128 196617 variedit /pjlink.2/shutter;#P hidden newex 455 331 73 196617 pvar shutter2;#P hidden newex 454 271 128 196617 variedit /pjlink.1/shutter;#P hidden newex 454 235 73 196617 pvar shutter1;#P window setfont "Sans Serif" 18.;#P comment 214 41 68 196626 /midiin;#B frgb 255 255 255;#P window setfont "Sans Serif" 9.;#P hidden newex 270 555 94 196617 bgcolor 45 75 112;#P hidden newex 117 662 94 196617 prepend setsymbol;#P hidden newex 172 505 40 196617 t front;#P hidden inlet 173 482 15 0;#N thispatcher;#Q end;#P hidden newobj 172 526 61 196617 thispatcher;#P window setfont "Sans Serif" 14.;#P comment 11 43 87 196622 /in/channel;#B frgb 255 255 255;#P window setfont "Sans Serif" 9.;#P hidden newex -19 628 146 196617 variedit /midicc.1/in/channel;#P hidden newex -19 592 86 196617 pvar midichannel;#P window setfont "Sans Serif" 18.;#P number 105 39 43 18 1 16 35 3 0 0 0 255 255 255 222 222 222 0 0 0;#P objectname midichannel;#P window setfont "Sans Serif" 9.;#P hidden newex 281 637 82 196617 pvar saveconfig;#P window setfont "Sans Serif" 14.;#P comment 11 79 97 196622 /in/interface;#B frgb 255 255 255;#P window setfont "Sans Serif" 9.;#P hidden newex 28 466 48 196617 loadbang;#P hidden message 28 489 14 196617 1;#P window linecount 1;#P hidden newex 121 584 154 196617 variedit /midicc.1/in/interface;#P window setfont "Sans Serif" 14.;#P user ubumenu 103 78 180 196622 0 1 1 0;#X setrgb 255 255 255 45 75 112 95 115 162 255 255 255 141 141 141 112 112 112;#X add "Gestionnaire IAC Bus 1";#X add "RŽseau Session 1";#X add "from grab2syphon 0.2 1";#X add "from grab2syphon 0.2 2";#X add "to MaxMSP 1";#X add "to MaxMSP 2";#X prefix_set 0 0 <none> 0;#P objectname midiinterface;#P window setfont "Sans Serif" 9.;#P hidden newex 28 511 46 196617 midiinfo;#P hidden newex 121 560 51 196617 tosymbol;#P hidden message 281 658 37 196617 config;#P hidden newex 281 681 92 196617 s /events.2/name;#N vpatcher 20 74 529 636;#P window setfont "Sans Serif" 9.;#P window linecount 2;#P message 275 105 90 196617 \; $1/host 10.0.0.2;#P window linecount 1;#P message 437 473 37 196617 select;#P number 437 492 35 9 0 0 0 3 0 0 0 221 221 221 222 222 222 0 0 0;#P newex 385 453 62 196617 pvar port 2;#P message 385 434 37 196617 select;#P message 308 436 37 196617 select;#P message 231 436 37 196617 select;#P message 154 436 37 196617 select;#P window linecount 2;#P message 275 58 108 196617 \; $1/host 192.168.1.2;#P window linecount 1;#P newex 97 50 83 196617 r /pjlink.2/host;#B color 11;#P newex 50 503 83 196617 s /pjlink.2/host;#B color 11;#P newex 328 374 62 196617 prepend set;#P newex 251 374 62 196617 prepend set;#P newex 174 374 62 196617 prepend set;#P newex 97 374 62 196617 prepend set;#P newex 50 481 241 196617 sprintf %ld.%ld.%ld.%ld;#P newex 50 460 241 196617 bondo 4 1;#P newex 251 309 51 196617 zl ecils 1;#P newex 174 309 51 196617 zl ecils 1;#P newex 328 353 64 196617 fromsymbol;#P newex 328 332 40 196617 itoa;#P number 328 266 35 9 0 0 0 3 0 0 0 221 221 221 222 222 222 0 0 0;#P newex 328 245 27 196617 !-;#P number 206 265 35 9 0 0 0 3 0 0 0 221 221 221 222 222 222 0 0 0;#P newex 206 244 27 196617 !-;#P newex 97 309 51 196617 zl ecils 1;#P newex 251 353 64 196617 fromsymbol;#P newex 251 332 40 196617 itoa;#P number 345 215 35 9 0 0 0 3 0 0 0 221 221 221 222 222 222 0 0 0;#P newex 251 287 87 196617 zl slice;#P newex 174 353 64 196617 fromsymbol;#P newex 174 332 40 196617 itoa;#P number 223 215 35 9 0 0 0 3 0 0 0 221 221 221 222 222 222 0 0 0;#P newex 174 286 42 196617 zl slice;#P newex 97 353 64 196617 fromsymbol;#P newex 97 332 40 196617 itoa;#P newex 97 113 67 196617 t l l;#P newex 97 71 124 196617 t s b;#P number 129 215 35 9 0 0 0 3 0 0 0 221 221 221 222 222 222 0 0 0;#P newex 154 186 86 196617 unpack 0 0 0;#P message 211 140 70 196617 mode group 3;#P newex 97 285 42 196617 zl slice;#P newex 154 165 55 196617 zl group 3;#P newex 154 135 51 196617 zl sub 46;#P newex 97 92 40 196617 atoi;#P inlet 385 414 15 0;#P inlet 308 416 15 0;#P inlet 281 440 15 0;#P inlet 231 416 15 0;#P inlet 204 440 15 0;#P inlet 154 416 15 0;#P inlet 127 440 15 0;#P inlet 50 440 15 0;#P outlet 328 396 15 0;#P outlet 308 456 15 0;#P outlet 251 396 15 0;#P outlet 231 456 15 0;#P outlet 174 396 15 0;#P outlet 154 456 15 0;#P outlet 97 396 15 0;#P connect 45 0 43 0;#P connect 7 0 43 0;#P connect 43 0 44 0;#P connect 44 0 49 0;#P connect 50 0 22 0;#P connect 22 0 15 0;#P connect 15 0 23 0;#P connect 23 0 18 0;#P connect 18 0 34 0;#P connect 34 0 24 0;#P connect 24 0 25 0;#P connect 25 0 45 0;#P connect 45 0 0 0;#P connect 46 0 43 1;#P connect 8 0 43 1;#P connect 43 1 44 1;#P connect 20 0 21 0;#P connect 21 0 18 1;#P connect 23 1 16 0;#P connect 16 0 17 0;#P connect 19 0 17 0;#P connect 17 0 20 0;#P connect 9 0 52 0;#P connect 52 0 1 0;#P connect 18 1 26 0;#P connect 26 0 41 0;#P connect 41 0 28 0;#P connect 28 0 29 0;#P connect 29 0 46 0;#P connect 46 0 2 0;#P connect 47 0 43 2;#P connect 10 0 43 2;#P connect 43 2 44 2;#P connect 21 0 35 0;#P connect 35 0 36 0;#P connect 36 0 26 1;#P connect 22 1 19 0;#P connect 20 1 27 0;#P connect 27 0 35 1;#P connect 11 0 53 0;#P connect 53 0 3 0;#P connect 26 1 30 0;#P connect 30 0 42 0;#P connect 42 0 32 0;#P connect 32 0 33 0;#P connect 33 0 47 0;#P connect 47 0 4 0;#P connect 48 0 43 3;#P connect 12 0 43 3;#P connect 43 3 44 3;#P connect 13 0 54 0;#P connect 54 0 5 0;#P connect 27 0 37 0;#P connect 37 0 38 0;#P connect 38 0 30 1;#P connect 30 1 39 0;#P connect 39 0 40 0;#P connect 40 0 48 0;#P connect 48 0 6 0;#P connect 20 2 31 0;#P connect 31 0 37 1;#P connect 14 0 55 0;#P connect 55 0 56 0;#P connect 56 1 58 0;#P connect 58 0 57 0;#P pop;#P hidden newobj 14 439 240 196617 p;#P hidden newex 245 413 81 196617 pvar hostd[1] 2;#P hidden newex 168 413 81 196617 pvar hostc[1] 2;#P hidden newex 91 413 81 196617 pvar hostb[1] 2;#P hidden newex 14 413 81 196617 pvar hosta[1] 2;#N vpatcher 20 74 529 636;#P window setfont "Sans Serif" 9.;#P window linecount 2;#P message 275 105 90 196617 \; $1/host 10.0.0.2;#P window linecount 1;#P message 437 473 37 196617 select;#P number 437 492 35 9 0 0 0 3 0 0 0 221 221 221 222 222 222 0 0 0;#P newex 385 453 62 196617 pvar port 2;#P message 385 434 37 196617 select;#P message 308 436 37 196617 select;#P message 231 436 37 196617 select;#P message 154 436 37 196617 select;#P window linecount 2;#P message 275 58 108 196617 \; $1/host 192.168.1.2;#P window linecount 1;#P newex 97 50 83 196617 r /pjlink.1/host;#B color 11;#P newex 50 503 83 196617 s /pjlink.1/host;#B color 11;#P newex 328 374 62 196617 prepend set;#P newex 251 374 62 196617 prepend set;#P newex 174 374 62 196617 prepend set;#P newex 97 374 62 196617 prepend set;#P newex 50 481 241 196617 sprintf %ld.%ld.%ld.%ld;#P newex 50 460 241 196617 bondo 4 1;#P newex 251 309 51 196617 zl ecils 1;#P newex 174 309 51 196617 zl ecils 1;#P newex 328 353 64 196617 fromsymbol;#P newex 328 332 40 196617 itoa;#P number 328 266 35 9 0 0 0 3 0 0 0 221 221 221 222 222 222 0 0 0;#P newex 328 245 27 196617 !-;#P number 206 265 35 9 0 0 0 3 0 0 0 221 221 221 222 222 222 0 0 0;#P newex 206 244 27 196617 !-;#P newex 97 309 51 196617 zl ecils 1;#P newex 251 353 64 196617 fromsymbol;#P newex 251 332 40 196617 itoa;#P number 345 215 35 9 0 0 0 3 0 0 0 221 221 221 222 222 222 0 0 0;#P newex 251 287 87 196617 zl slice;#P newex 174 353 64 196617 fromsymbol;#P newex 174 332 40 196617 itoa;#P number 223 215 35 9 0 0 0 3 0 0 0 221 221 221 222 222 222 0 0 0;#P newex 174 286 42 196617 zl slice;#P newex 97 353 64 196617 fromsymbol;#P newex 97 332 40 196617 itoa;#P newex 97 113 67 196617 t l l;#P newex 97 71 124 196617 t s b;#P number 129 215 35 9 0 0 0 3 0 0 0 221 221 221 222 222 222 0 0 0;#P newex 154 186 86 196617 unpack 0 0 0;#P message 211 140 70 196617 mode group 3;#P newex 97 285 42 196617 zl slice;#P newex 154 165 55 196617 zl group 3;#P newex 154 135 51 196617 zl sub 46;#P newex 97 92 40 196617 atoi;#P inlet 385 414 15 0;#P inlet 308 416 15 0;#P inlet 281 440 15 0;#P inlet 231 416 15 0;#P inlet 204 440 15 0;#P inlet 154 416 15 0;#P inlet 127 440 15 0;#P inlet 50 440 15 0;#P outlet 328 396 15 0;#P outlet 308 456 15 0;#P outlet 251 396 15 0;#P outlet 231 456 15 0;#P outlet 174 396 15 0;#P outlet 154 456 15 0;#P outlet 97 396 15 0;#P connect 45 0 43 0;#P connect 7 0 43 0;#P connect 43 0 44 0;#P connect 44 0 49 0;#P connect 50 0 22 0;#P connect 22 0 15 0;#P connect 15 0 23 0;#P connect 23 0 18 0;#P connect 18 0 34 0;#P connect 34 0 24 0;#P connect 24 0 25 0;#P connect 25 0 45 0;#P connect 45 0 0 0;#P connect 46 0 43 1;#P connect 8 0 43 1;#P connect 43 1 44 1;#P connect 20 0 21 0;#P connect 21 0 18 1;#P connect 23 1 16 0;#P connect 19 0 17 0;#P connect 16 0 17 0;#P connect 17 0 20 0;#P connect 9 0 52 0;#P connect 52 0 1 0;#P connect 18 1 26 0;#P connect 26 0 41 0;#P connect 41 0 28 0;#P connect 28 0 29 0;#P connect 29 0 46 0;#P connect 46 0 2 0;#P connect 47 0 43 2;#P connect 10 0 43 2;#P connect 43 2 44 2;#P connect 21 0 35 0;#P connect 35 0 36 0;#P connect 36 0 26 1;#P connect 22 1 19 0;#P connect 20 1 27 0;#P connect 27 0 35 1;#P connect 11 0 53 0;#P connect 53 0 3 0;#P connect 26 1 30 0;#P connect 30 0 42 0;#P connect 42 0 32 0;#P connect 32 0 33 0;#P connect 33 0 47 0;#P connect 47 0 4 0;#P connect 48 0 43 3;#P connect 12 0 43 3;#P connect 43 3 44 3;#P connect 13 0 54 0;#P connect 54 0 5 0;#P connect 27 0 37 0;#P connect 37 0 38 0;#P connect 38 0 30 1;#P connect 30 1 39 0;#P connect 39 0 40 0;#P connect 40 0 48 0;#P connect 48 0 6 0;#P connect 20 2 31 0;#P connect 31 0 37 1;#P connect 14 0 55 0;#P connect 55 0 56 0;#P connect 56 1 58 0;#P connect 58 0 57 0;#P pop;#P hidden newobj 14 378 240 196617 p;#P hidden newex 245 352 67 196617 pvar hostd 2;#P hidden newex 168 352 67 196617 pvar hostc 2;#P hidden newex 91 352 67 196617 pvar hostb 2;#P hidden newex 14 352 67 196617 pvar hosta 2;#P window setfont Arial 18.;#P comment 92 237 133 -1205862382 SAVE CONFIG;#B frgb 255 255 255;#P objectname audioofflabel[1];#P window setfont "Sans Serif" 9.;#P hidden newex 28 536 103 196617 pvar midiinterface 2;#P user ubutton 64 233 178 29 0 2;#P objectname saveconfig;#P user panel 65 233 178 29;#X brgb 251 76 0;#X frgb 255 255 255;#X border 2;#X rounded 14;#X shadow 0;#X done;#P user panel 7 37 280 72;#X brgb 33 44 67;#X frgb 251 76 0;#X border 2;#X rounded 14;#X shadow 0;#X done;#P window setfont "Sans Serif" 18.;#P comment 64 4 173 196626 initialisation values;#B frgb 255 255 255;#P user panel 7 112 280 72;#X brgb 33 44 67;#X frgb 251 76 0;#X border 2;#X rounded 14;#X shadow 0;#X done;#P hidden fasten 29 0 28 0 -14 655 -29 655 -29 586 -14 586;#P hidden connect 28 0 29 0;#P hidden connect 11 0 7 0;#P hidden connect 7 0 11 0;#P hidden connect 16 0 12 0;#P hidden connect 12 0 16 0;#P hidden connect 24 0 23 0;#P hidden connect 34 0 5 0;#P hidden connect 20 0 5 0;#P hidden connect 8 0 11 1;#P hidden connect 13 0 16 1;#P connect 23 0 20 1;#P hidden connect 7 1 11 2;#P hidden connect 12 1 16 2;#P hidden connect 11 2 8 0;#P hidden connect 11 1 8 0;#P hidden connect 16 2 13 0;#P hidden connect 16 1 13 0;#P hidden connect 9 0 11 3;#P hidden connect 14 0 16 3;#P hidden connect 22 1 34 0;#P hidden connect 5 1 19 0;#P hidden connect 19 0 22 0;#P hidden connect 8 1 11 4;#P hidden connect 13 1 16 4;#P hidden connect 11 4 9 0;#P hidden connect 11 3 9 0;#P hidden connect 16 4 14 0;#P hidden connect 16 3 14 0;#P hidden connect 32 0 33 0;#P hidden connect 33 0 31 0;#P hidden connect 10 0 11 5;#P hidden connect 15 0 16 5;#P hidden connect 9 1 11 6;#P hidden connect 14 1 16 6;#P hidden connect 10 1 11 7;#P hidden connect 15 1 16 7;#P hidden connect 11 6 10 0;#P hidden connect 11 5 10 0;#P hidden connect 16 6 15 0;#P hidden connect 16 5 15 0;#P hidden connect 26 0 18 0;#P hidden connect 18 0 17 0;#P hidden connect 56 0 42 0;#P hidden connect 42 0 44 0;#P hidden connect 44 0 46 0;#P hidden connect 46 0 47 0;#P hidden connect 47 0 48 0;#P hidden connect 48 0 41 0;#P hidden connect 44 1 47 1;#P hidden connect 48 1 43 0;#P hidden connect 42 1 45 0;#P hidden connect 45 0 46 1;#P hidden connect 65 0 64 0;#P hidden connect 64 0 65 0;#P hidden fasten 38 0 37 0 459 298 444 298 444 229 459 229;#P hidden connect 37 0 38 0;#P hidden fasten 40 0 39 0 460 394 445 394 445 325 460 325;#P hidden connect 39 0 40 0;#P hidden connect 52 1 57 0;#P hidden connect 57 0 58 0;#P connect 55 0 54 0;#P hidden connect 54 0 53 0;#P hidden connect 53 0 52 0;#P hidden connect 59 0 52 0;#P hidden connect 58 1 59 0;#P pop;#P hidden newobj 806 386 45 196617 p config;#P hidden connect 48 0 39 0;#P hidden connect 48 0 38 0;#P hidden connect 48 0 40 0;#P hidden connect 48 0 41 0;#P hidden connect 89 0 91 0;#P hidden connect 91 0 92 0;#P hidden connect 92 0 90 0;#P hidden connect 66 0 65 0;#P hidden connect 68 0 62 0;#P hidden connect 65 0 62 0;#P hidden connect 76 0 75 0;#P hidden connect 75 0 74 0;#P hidden fasten 80 0 74 0 187 766 221 766 221 696 86 696;#P hidden fasten 61 1 65 1 255 644 541 644 541 531 136 531;#P hidden connect 68 0 61 0;#P hidden connect 65 1 61 0;#P hidden connect 74 1 79 0;#P hidden connect 79 0 77 0;#P hidden connect 77 0 71 0;#P hidden connect 71 0 60 0;#P hidden connect 79 1 80 0;#P hidden connect 78 3 71 1;#P lcolor 1;#P hidden connect 61 1 71 1;#P hidden connect 83 1 81 0;#P hidden connect 83 1 82 0;#P hidden connect 82 0 84 0;#P hidden fasten 61 0 65 2 154 618 27 618 37 556 222 556;#P hidden connect 77 1 69 0;#P hidden connect 69 0 70 0;#P hidden connect 78 3 69 1;#P lcolor 1;#P hidden connect 61 1 69 1;#P hidden connect 77 2 73 0;#P hidden connect 73 0 72 0;#P hidden connect 68 0 63 0;#P hidden connect 65 3 63 0;#P hidden connect 65 2 78 0;#P lcolor 2;#P hidden connect 78 3 73 1;#P lcolor 1;#P hidden connect 61 1 73 1;#P hidden fasten 63 0 65 3 280 629 519 629 519 545 308 545;#P hidden connect 85 0 86 0;#P hidden fasten 64 0 65 4 430 615 510 615 510 558 394 558;#P hidden connect 68 0 64 0;#P hidden connect 65 4 64 0;#P hidden connect 87 0 88 0;#P hidden fasten 19 0 18 0 557 423 546 423 546 373 557 373;#P hidden fasten 18 0 19 0 557 399 557 399;#P hidden connect 54 0 49 0;#P hidden connect 53 0 52 0;#P hidden connect 49 0 52 0;#P hidden connect 52 0 50 0;#P hidden connect 55 0 50 0;#P hidden connect 50 0 51 0;#P hidden connect 51 0 43 0;#P hidden connect 42 0 44 0;#P hidden connect 44 0 45 0;#P hidden connect 54 1 55 0;#P hidden connect 2 0 6 0;#P hidden connect 6 0 3 0;#P hidden connect 5 0 3 0;#P hidden connect 54 3 56 0;#P hidden connect 56 0 53 0;#P hidden connect 6 1 4 0;#P hidden connect 4 0 7 0;#P hidden connect 7 0 5 0;#P hidden connect 8 1 10 0;#P hidden connect 10 0 12 0;#P hidden connect 12 0 9 0;#P hidden connect 9 0 11 0;#P hidden connect 11 0 8 0;#P hidden connect 17 0 13 0;#P hidden connect 1 0 0 0;#P hidden connect 13 1 15 0;#P hidden connect 15 0 16 0;#P hidden connect 16 0 14 0;#P hidden connect 14 0 17 0;#P pop;